<svg width="366" height="334" viewBox="0 0 366 334" fill="none" xmlns="http://www.w3.org/2000/svg">
<g filter="url(#filter0_d_2636_2716)">
<rect width="328" height="296" transform="translate(19 6)" fill="white"/>
<g clip-path="url(#clip0_2636_2716)">
<g clip-path="url(#clip1_2636_2716)">
<g clip-path="url(#clip2_2636_2716)">
<path d="M99.5332 65.4541C102.018 65.4541 104.033 63.4394 104.033 60.9541C104.033 58.4688 102.018 56.4541 99.5332 56.4541C97.0479 56.4541 95.0332 58.4688 95.0332 60.9541C95.0332 63.4394 97.0479 65.4541 99.5332 65.4541Z" fill="#F68820"/>
</g>
<path d="M123.833 106.854L104.033 80.4537V61.5166C104.033 60.2746 103.025 59.2666 101.783 59.2666C100.541 59.2666 99.5332 60.2746 99.5332 61.5166V80.4537L79.7332 106.854C78.9874 107.849 79.1899 109.259 80.1832 110.004C80.5882 110.309 81.0619 110.454 81.5321 110.454C82.2161 110.454 82.8911 110.144 83.3344 109.554L99.5344 87.9541V108.204C99.5344 109.446 100.542 110.454 101.784 110.454C103.026 110.454 104.034 109.446 104.034 108.204V87.9541L120.234 109.554C120.676 110.142 121.353 110.454 122.037 110.454C122.506 110.454 122.98 110.308 123.385 110.004C124.377 109.259 124.578 107.849 123.833 106.854Z" fill="#55525B"/>
<g clip-path="url(#clip3_2636_2716)">
<path d="M95.0301 94.7042C94.0907 94.7042 93.1435 94.4106 92.3335 93.8042C90.3445 92.3125 89.9428 89.4921 91.4335 87.5031L98.1835 78.5031C99.6763 76.5152 102.496 76.1147 104.483 77.6031C106.472 79.0948 106.874 81.9152 105.383 83.9042L98.6335 92.9042C97.7492 94.0832 96.3981 94.7042 95.0301 94.7042Z" fill="#5C76B2"/>
</g>
<g clip-path="url(#clip4_2636_2716)">
<path d="M108.537 94.7043C107.169 94.7043 105.817 94.0833 104.933 92.9044L98.1831 83.9044C96.6925 81.9154 97.0953 79.0961 99.0831 77.6032C101.07 76.1137 103.89 76.5131 105.383 78.5032L112.133 87.5032C113.624 89.4922 113.221 92.3115 111.233 93.8043C110.423 94.4118 109.476 94.7043 108.537 94.7043Z" fill="#5C76B2"/>
</g>
<g clip-path="url(#clip5_2636_2716)">
<g clip-path="url(#clip6_2636_2716)">
<path d="M122.796 54.4958L118.365 53.7139C114.694 53.067 111.193 55.5184 110.545 59.1893C109.898 62.8601 112.349 66.3611 116.02 67.0091L120.452 67.791C124.123 68.4379 127.624 65.9865 128.272 62.3156C128.918 58.6436 126.467 55.1426 122.796 54.4958Z" fill="#F68820"/>
</g>
<g clip-path="url(#clip7_2636_2716)">
<path d="M117.191 67.1113C120.919 67.1113 123.941 64.0892 123.941 60.3613C123.941 56.6334 120.919 53.6113 117.191 53.6113C113.463 53.6113 110.441 56.6334 110.441 60.3613C110.441 64.0892 113.463 67.1113 117.191 67.1113Z" fill="#FBBE18"/>
</g>
<g clip-path="url(#clip8_2636_2716)">
<path d="M116.411 64.7939L100.9 62.059L102.463 53.1963L117.973 55.9312C120.421 56.3632 122.055 58.6964 121.624 61.1444C121.192 63.5902 118.859 65.2248 116.411 64.7939Z" fill="#6FA4D8"/>
</g>
<g clip-path="url(#clip9_2636_2716)">
<path d="M100.9 62.0578L116.411 64.7927C118.859 65.2247 121.192 63.5901 121.624 61.1421L101.682 57.6265L100.9 62.0578Z" fill="#5C76B2"/>
</g>
<g clip-path="url(#clip10_2636_2716)">
<path d="M96.0768 63.4925L80.5664 60.7577L82.9109 47.4624L98.4213 50.1973C102.092 50.8442 104.544 54.3452 103.897 58.0172C103.25 61.6892 99.7488 64.1405 96.0768 63.4925Z" fill="#6FA4D8"/>
</g>
<g clip-path="url(#clip11_2636_2716)">
<path d="M80.5664 60.7575L96.0768 63.4924C99.7477 64.1392 103.249 61.6879 103.897 58.017L81.7387 54.1099L80.5664 60.7575Z" fill="#5C76B2"/>
</g>
<g clip-path="url(#clip12_2636_2716)">
<path d="M79.2603 42.2501L74.8289 41.4682C68.7101 40.3893 62.8758 44.4753 61.7958 50.5942C60.7169 56.7131 64.8029 62.5473 70.9218 63.6273L75.3532 64.4092C81.4721 65.4881 87.3074 61.4021 88.3863 55.2832C89.4652 49.1632 85.3792 43.3289 79.2603 42.2501Z" fill="#F68820"/>
</g>
<g clip-path="url(#clip13_2636_2716)">
<path d="M72.875 63.7974C79.0882 63.7974 84.125 58.7606 84.125 52.5474C84.125 46.3342 79.0882 41.2974 72.875 41.2974C66.6618 41.2974 61.625 46.3342 61.625 52.5474C61.625 58.7606 66.6618 63.7974 72.875 63.7974Z" fill="#FBBE18"/>
</g>
<g clip-path="url(#clip14_2636_2716)">
<path d="M72.875 61.5474C77.8456 61.5474 81.875 57.5179 81.875 52.5474C81.875 47.5768 77.8456 43.5474 72.875 43.5474C67.9044 43.5474 63.875 47.5768 63.875 52.5474C63.875 57.5179 67.9044 61.5474 72.875 61.5474Z" fill="#55525B"/>
</g>
<g clip-path="url(#clip15_2636_2716)">
<path d="M71.7474 43.6172C68.8089 43.9873 66.2214 45.7986 64.8691 48.4333C65.291 50.0983 66.6433 51.4483 68.4444 51.7667C70.8924 52.1987 73.2256 50.5641 73.6576 48.1161C73.9738 46.3149 73.1683 44.5824 71.7474 43.6172Z" fill="#B3B4B6"/>
</g>
</g>
<g clip-path="url(#clip16_2636_2716)">
<path d="M104.033 65.4541C106.518 65.4541 108.533 63.4394 108.533 60.9541C108.533 58.4688 106.518 56.4541 104.033 56.4541C101.548 56.4541 99.5332 58.4688 99.5332 60.9541C99.5332 63.4394 101.548 65.4541 104.033 65.4541Z" fill="#FBBE18"/>
</g>
<g clip-path="url(#clip17_2636_2716)">
<path d="M104.033 63.2041C105.276 63.2041 106.283 62.1967 106.283 60.9541C106.283 59.7115 105.276 58.7041 104.033 58.7041C102.791 58.7041 101.783 59.7115 101.783 60.9541C101.783 62.1967 102.791 63.2041 104.033 63.2041Z" fill="#55525B"/>
</g>
<g clip-path="url(#clip18_2636_2716)">
<path d="M81.5332 112.704C84.0185 112.704 86.0332 110.689 86.0332 108.204C86.0332 105.719 84.0185 103.704 81.5332 103.704C79.0479 103.704 77.0332 105.719 77.0332 108.204C77.0332 110.689 79.0479 112.704 81.5332 112.704Z" fill="#F68820"/>
</g>
<g clip-path="url(#clip19_2636_2716)">
<path d="M122.033 112.704C124.518 112.704 126.533 110.689 126.533 108.204C126.533 105.719 124.518 103.704 122.033 103.704C119.548 103.704 117.533 105.719 117.533 108.204C117.533 110.689 119.548 112.704 122.033 112.704Z" fill="#F68820"/>
</g>
<g clip-path="url(#clip20_2636_2716)">
<path d="M101.783 112.704C104.268 112.704 106.283 110.689 106.283 108.204C106.283 105.719 104.268 103.704 101.783 103.704C99.2979 103.704 97.2832 105.719 97.2832 108.204C97.2832 110.689 99.2979 112.704 101.783 112.704Z" fill="#F68820"/>
</g>
<g clip-path="url(#clip21_2636_2716)">
<path d="M101.783 94.7041C99.2981 94.7041 97.2832 92.6892 97.2832 90.2041V81.2041C97.2832 78.719 99.2981 76.7041 101.783 76.7041C104.268 76.7041 106.283 78.719 106.283 81.2041V90.2041C106.283 92.6892 104.268 94.7041 101.783 94.7041Z" fill="#F68820"/>
</g>
<g clip-path="url(#clip22_2636_2716)">
<path d="M101.783 94.7041C99.2981 94.7041 97.2832 92.6892 97.2832 90.2041V81.2041C97.2832 78.719 99.2981 76.7041 101.783 76.7041C104.268 76.7041 106.283 78.719 106.283 81.2041V90.2041C106.283 92.6892 104.268 94.7041 101.783 94.7041Z" fill="#6FA4D8"/>
</g>
</g>
</g>
<path d="M65.312 150.176C66.304 149.168 67.008 148.368 67.424 147.776C67.856 147.168 68.072 146.584 68.072 146.024C68.072 145.464 67.888 145 67.52 144.632C67.152 144.248 66.68 144.056 66.104 144.056C65.048 144.056 64.048 144.808 63.104 146.312L60.104 144.536C60.888 143.32 61.744 142.4 62.672 141.776C63.616 141.152 64.808 140.84 66.248 140.84C67.704 140.84 68.976 141.304 70.064 142.232C71.168 143.144 71.72 144.392 71.72 145.976C71.72 146.84 71.496 147.672 71.048 148.472C70.616 149.256 69.808 150.264 68.624 151.496L65.6 154.64H72.224V158H60.392V155.216L65.312 150.176ZM75.8153 157.712C75.2553 157.312 74.9753 156.792 74.9753 156.152C74.9753 155.512 75.1913 154.992 75.6233 154.592C76.0553 154.176 76.5753 153.968 77.1833 153.968C77.7913 153.968 78.3113 154.168 78.7433 154.568C79.1913 154.968 79.4153 155.44 79.4153 155.984C79.4153 156.512 79.1833 157.152 78.7193 157.904L77.2793 160.376H74.9033L75.8153 157.712ZM81.9843 146.6V141.224H94.1043V144.056L87.3123 158H83.2323L89.7123 144.44H85.4883V146.6H81.9843ZM103.351 144.056C102.311 144.056 101.503 144.408 100.927 145.112C100.367 145.8 100.023 146.744 99.8947 147.944C100.935 147.272 102.039 146.936 103.207 146.936C104.775 146.936 106.079 147.448 107.119 148.472C108.175 149.496 108.703 150.864 108.703 152.576C108.703 154.272 108.135 155.632 106.999 156.656C105.879 157.68 104.463 158.192 102.751 158.192C101.567 158.192 100.535 157.968 99.6547 157.52C98.7907 157.056 98.1187 156.416 97.6387 155.6C96.6787 154.016 96.1987 152.032 96.1987 149.648C96.1987 148.112 96.3827 146.768 96.7507 145.616C97.1347 144.448 97.6547 143.528 98.3107 142.856C99.5907 141.512 101.175 140.84 103.063 140.84C103.847 140.84 104.591 140.96 105.295 141.2C106.015 141.424 106.567 141.656 106.951 141.896C107.335 142.136 107.759 142.44 108.223 142.808L106.447 145.448C106.351 145.352 106.207 145.224 106.015 145.064C105.839 144.904 105.479 144.696 104.935 144.44C104.391 144.184 103.863 144.056 103.351 144.056ZM102.847 150.104C102.111 150.104 101.487 150.328 100.975 150.776C100.479 151.208 100.231 151.776 100.231 152.48C100.231 153.184 100.471 153.792 100.951 154.304C101.431 154.8 102.031 155.048 102.751 155.048C103.471 155.048 104.071 154.824 104.551 154.376C105.031 153.928 105.271 153.352 105.271 152.648C105.271 151.928 105.055 151.328 104.623 150.848C104.191 150.352 103.599 150.104 102.847 150.104ZM116.672 154.976C117.712 154.976 118.512 154.632 119.072 153.944C119.648 153.24 120 152.288 120.128 151.088C119.104 151.776 118 152.12 116.816 152.12C115.248 152.12 113.936 151.608 112.88 150.584C111.84 149.544 111.32 148.176 111.32 146.48C111.32 144.784 111.88 143.424 113 142.4C114.136 141.36 115.56 140.84 117.272 140.84C118.456 140.84 119.48 141.072 120.344 141.536C121.224 141.984 121.912 142.616 122.408 143.432C123.352 145.016 123.824 147 123.824 149.384C123.824 150.92 123.632 152.272 123.248 153.44C122.88 154.592 122.376 155.504 121.736 156.176C120.424 157.52 118.832 158.192 116.96 158.192C116.176 158.192 115.424 158.08 114.704 157.856C113.984 157.616 113.44 157.384 113.072 157.16C112.704 156.92 112.28 156.616 111.8 156.248L113.672 153.608C113.784 153.704 113.928 153.832 114.104 153.992C114.296 154.136 114.656 154.336 115.184 154.592C115.712 154.848 116.208 154.976 116.672 154.976ZM117.176 148.928C117.928 148.928 118.552 148.712 119.048 148.28C119.544 147.848 119.792 147.28 119.792 146.576C119.792 145.872 119.552 145.264 119.072 144.752C118.592 144.24 117.992 143.984 117.272 143.984C116.552 143.984 115.96 144.216 115.496 144.68C115.048 145.128 114.824 145.704 114.824 146.408C114.824 147.112 115.032 147.712 115.448 148.208C115.864 148.688 116.44 148.928 117.176 148.928ZM136.278 151.544C136.278 152.6 136.574 153.464 137.166 154.136C137.774 154.792 138.542 155.12 139.47 155.12C140.414 155.12 141.182 154.792 141.774 154.136C142.382 153.464 142.686 152.6 142.686 151.544C142.686 150.488 142.382 149.624 141.774 148.952C141.182 148.28 140.414 147.944 139.47 147.944C138.542 147.944 137.774 148.28 137.166 148.952C136.574 149.624 136.278 150.488 136.278 151.544ZM146.31 151.544C146.31 153.416 145.662 154.992 144.366 156.272C143.07 157.552 141.438 158.192 139.47 158.192C137.518 158.192 135.894 157.552 134.598 156.272C133.302 154.992 132.654 153.416 132.654 151.544C132.654 149.672 133.302 148.096 134.598 146.816C135.894 145.52 137.518 144.872 139.47 144.872C141.438 144.872 143.07 145.52 144.366 146.816C145.662 148.096 146.31 149.672 146.31 151.544ZM152.684 150.8V158H149.084V145.088H152.684V146.528C153.772 145.424 154.996 144.872 156.356 144.872C157.716 144.872 158.852 145.352 159.764 146.312C160.692 147.272 161.156 148.552 161.156 150.152V158H157.556V150.704C157.556 148.72 156.828 147.728 155.372 147.728C154.652 147.728 154.02 147.992 153.476 148.52C152.948 149.032 152.684 149.792 152.684 150.8ZM168.112 158H164.512V140.192H168.112V158ZM175.22 158H171.62V145.088H175.22V158ZM171.908 143.456C171.508 143.04 171.308 142.536 171.308 141.944C171.308 141.352 171.508 140.856 171.908 140.456C172.324 140.04 172.828 139.832 173.42 139.832C174.012 139.832 174.508 140.04 174.908 140.456C175.324 140.856 175.532 141.352 175.532 141.944C175.532 142.536 175.324 143.04 174.908 143.456C174.508 143.856 174.012 144.056 173.42 144.056C172.828 144.056 172.324 143.856 171.908 143.456ZM182.327 150.8V158H178.727V145.088H182.327V146.528C183.415 145.424 184.639 144.872 185.999 144.872C187.359 144.872 188.495 145.352 189.407 146.312C190.335 147.272 190.799 148.552 190.799 150.152V158H187.199V150.704C187.199 148.72 186.471 147.728 185.015 147.728C184.295 147.728 183.663 147.992 183.119 148.52C182.591 149.032 182.327 149.792 182.327 150.8ZM205.34 156.128C203.884 157.504 202.172 158.192 200.204 158.192C198.252 158.192 196.636 157.592 195.356 156.392C194.076 155.176 193.436 153.552 193.436 151.52C193.436 149.488 194.084 147.872 195.38 146.672C196.692 145.472 198.236 144.872 200.012 144.872C201.788 144.872 203.292 145.408 204.524 146.48C205.772 147.552 206.396 149.024 206.396 150.896V152.816H196.988C197.1 153.52 197.468 154.096 198.092 154.544C198.716 154.992 199.42 155.216 200.204 155.216C201.468 155.216 202.508 154.792 203.324 153.944L205.34 156.128ZM202.748 150.248C202.668 149.48 202.38 148.888 201.884 148.472C201.388 148.056 200.78 147.848 200.06 147.848C199.356 147.848 198.708 148.064 198.116 148.496C197.524 148.928 197.18 149.512 197.084 150.248H202.748ZM221.712 155C222.912 155 223.992 154.4 224.952 153.2L227.088 155.6C225.424 157.328 223.624 158.192 221.688 158.192C219.752 158.192 218.112 157.584 216.768 156.368C215.44 155.136 214.776 153.536 214.776 151.568C214.776 149.584 215.448 147.976 216.792 146.744C218.152 145.496 219.76 144.872 221.616 144.872C222.544 144.872 223.48 145.064 224.424 145.448C225.384 145.832 226.224 146.4 226.944 147.152L225.072 149.6C224.656 149.104 224.144 148.72 223.536 148.448C222.944 148.176 222.352 148.04 221.76 148.04C220.816 148.04 220 148.352 219.312 148.976C218.64 149.584 218.304 150.44 218.304 151.544C218.304 152.632 218.64 153.48 219.312 154.088C220 154.696 220.8 155 221.712 155ZM232.257 151.544C232.257 152.6 232.553 153.464 233.145 154.136C233.753 154.792 234.521 155.12 235.449 155.12C236.393 155.12 237.161 154.792 237.753 154.136C238.361 153.464 238.665 152.6 238.665 151.544C238.665 150.488 238.361 149.624 237.753 148.952C237.161 148.28 236.393 147.944 235.449 147.944C234.521 147.944 233.753 148.28 233.145 148.952C232.553 149.624 232.257 150.488 232.257 151.544ZM242.289 151.544C242.289 153.416 241.641 154.992 240.345 156.272C239.049 157.552 237.417 158.192 235.449 158.192C233.497 158.192 231.873 157.552 230.577 156.272C229.281 154.992 228.633 153.416 228.633 151.544C228.633 149.672 229.281 148.096 230.577 146.816C231.873 145.52 233.497 144.872 235.449 144.872C237.417 144.872 239.049 145.52 240.345 146.816C241.641 148.096 242.289 149.672 242.289 151.544ZM253.391 152.048V145.088H257.015V158H253.391V156.296C252.495 157.56 251.335 158.192 249.911 158.192C248.503 158.192 247.319 157.752 246.359 156.872C245.399 155.976 244.919 154.656 244.919 152.912V145.088H248.543V152.12C248.543 154.104 249.271 155.096 250.727 155.096C251.447 155.096 252.071 154.84 252.599 154.328C253.127 153.8 253.391 153.04 253.391 152.048ZM267.307 148.256C266.235 148.256 265.435 148.64 264.907 149.408C264.379 150.16 264.115 151.16 264.115 152.408V158H260.515V145.088H264.115V146.792C264.579 146.264 265.155 145.816 265.843 145.448C266.547 145.08 267.259 144.888 267.979 144.872L268.003 148.256H267.307ZM280.108 153.992C280.108 155.256 279.636 156.272 278.692 157.04C277.764 157.808 276.58 158.192 275.14 158.192C274.18 158.192 273.18 158.024 272.14 157.688C271.1 157.336 270.164 156.824 269.332 156.152L270.916 153.896C272.26 154.936 273.692 155.456 275.212 155.456C275.676 155.456 276.044 155.368 276.316 155.192C276.588 155 276.724 154.752 276.724 154.448C276.724 154.144 276.532 153.864 276.148 153.608C275.78 153.352 275.236 153.112 274.516 152.888C273.812 152.664 273.268 152.472 272.884 152.312C272.516 152.152 272.092 151.92 271.612 151.616C270.636 151.008 270.148 150.112 270.148 148.928C270.148 147.728 270.628 146.752 271.588 146C272.548 145.248 273.788 144.872 275.308 144.872C276.828 144.872 278.348 145.384 279.868 146.408L278.524 148.808C277.404 148.04 276.284 147.656 275.164 147.656C274.06 147.656 273.508 147.96 273.508 148.568C273.508 148.904 273.684 149.168 274.036 149.36C274.388 149.552 274.972 149.776 275.788 150.032C276.604 150.288 277.18 150.488 277.516 150.632C277.868 150.76 278.284 150.968 278.764 151.256C279.66 151.8 280.108 152.712 280.108 153.992ZM294.141 156.128C292.685 157.504 290.973 158.192 289.005 158.192C287.053 158.192 285.437 157.592 284.157 156.392C282.877 155.176 282.237 153.552 282.237 151.52C282.237 149.488 282.885 147.872 284.181 146.672C285.493 145.472 287.037 144.872 288.813 144.872C290.589 144.872 292.093 145.408 293.325 146.48C294.573 147.552 295.197 149.024 295.197 150.896V152.816H285.789C285.901 153.52 286.269 154.096 286.893 154.544C287.517 154.992 288.221 155.216 289.005 155.216C290.269 155.216 291.309 154.792 292.125 153.944L294.141 156.128ZM291.549 150.248C291.469 149.48 291.181 148.888 290.685 148.472C290.189 148.056 289.581 147.848 288.861 147.848C288.157 147.848 287.509 148.064 286.917 148.496C286.325 148.928 285.981 149.512 285.885 150.248H291.549ZM307.613 153.992C307.613 155.256 307.141 156.272 306.197 157.04C305.269 157.808 304.085 158.192 302.645 158.192C301.685 158.192 300.685 158.024 299.645 157.688C298.605 157.336 297.669 156.824 296.837 156.152L298.421 153.896C299.765 154.936 301.197 155.456 302.717 155.456C303.181 155.456 303.549 155.368 303.821 155.192C304.093 155 304.229 154.752 304.229 154.448C304.229 154.144 304.037 153.864 303.653 153.608C303.285 153.352 302.741 153.112 302.021 152.888C301.317 152.664 300.773 152.472 300.389 152.312C300.021 152.152 299.597 151.92 299.117 151.616C298.141 151.008 297.653 150.112 297.653 148.928C297.653 147.728 298.133 146.752 299.093 146C300.053 145.248 301.293 144.872 302.813 144.872C304.333 144.872 305.853 145.384 307.373 146.408L306.029 148.808C304.909 148.04 303.789 147.656 302.669 147.656C301.565 147.656 301.013 147.96 301.013 148.568C301.013 148.904 301.189 149.168 301.541 149.36C301.893 149.552 302.477 149.776 303.293 150.032C304.109 150.288 304.685 150.488 305.021 150.632C305.373 150.76 305.789 150.968 306.269 151.256C307.165 151.8 307.613 152.712 307.613 153.992Z" fill="#252B42"/>
<rect x="59" y="185" width="50" height="2" fill="#E74040"/>
<path d="M64.054 213.726V222H62.402V213.726H59.434V212.214H67.022V213.726H64.054ZM70.2829 217.968V222H68.7149V211.626H70.2829V215.91C70.5069 215.453 70.8429 215.093 71.2909 214.832C71.7482 214.571 72.2382 214.44 72.7609 214.44C73.6009 214.44 74.2775 214.697 74.7909 215.21C75.3135 215.723 75.5749 216.465 75.5749 217.436V222H74.0069V217.912C74.0069 216.54 73.4375 215.854 72.2989 215.854C71.7575 215.854 71.2862 216.036 70.8849 216.4C70.4835 216.755 70.2829 217.277 70.2829 217.968ZM84.8956 218.962H79.0576C79.095 219.503 79.3423 219.942 79.7996 220.278C80.257 220.605 80.7796 220.768 81.3676 220.768C82.301 220.768 83.0103 220.474 83.4956 219.886L84.3916 220.866C83.589 221.697 82.5436 222.112 81.2556 222.112C80.2103 222.112 79.319 221.767 78.5816 221.076C77.8536 220.376 77.4896 219.443 77.4896 218.276C77.4896 217.1 77.863 216.167 78.6096 215.476C79.3563 214.785 80.2336 214.44 81.2416 214.44C82.259 214.44 83.1223 214.748 83.8316 215.364C84.541 215.971 84.8956 216.811 84.8956 217.884V218.962ZM79.0576 217.73H83.3276C83.3276 217.105 83.1316 216.624 82.7396 216.288C82.3476 215.952 81.8623 215.784 81.2836 215.784C80.7143 215.784 80.201 215.961 79.7436 216.316C79.2863 216.661 79.0576 217.133 79.0576 217.73ZM97.7497 214.552V221.048C97.7497 222.364 97.3904 223.349 96.6717 224.002C95.9624 224.665 95.0477 224.996 93.9277 224.996C92.8077 224.996 91.7951 224.646 90.8897 223.946L91.6317 222.756C92.3597 223.307 93.0924 223.582 93.8297 223.582C94.5764 223.582 95.1644 223.391 95.5937 223.008C96.0324 222.625 96.2517 222.014 96.2517 221.174V220.222C96.0184 220.661 95.6824 221.011 95.2437 221.272C94.8144 221.533 94.3291 221.664 93.7877 221.664C92.7984 221.664 91.9864 221.319 91.3517 220.628C90.7171 219.937 90.3997 219.079 90.3997 218.052C90.3997 217.025 90.7171 216.167 91.3517 215.476C91.9864 214.785 92.7937 214.44 93.7737 214.44C94.7631 214.44 95.5657 214.846 96.1817 215.658V214.552H97.7497ZM91.9397 217.996C91.9397 218.603 92.1264 219.13 92.4997 219.578C92.8824 220.017 93.3911 220.236 94.0257 220.236C94.6697 220.236 95.1877 220.021 95.5797 219.592C95.9811 219.163 96.1817 218.631 96.1817 217.996C96.1817 217.352 95.9811 216.811 95.5797 216.372C95.1784 215.924 94.6604 215.7 94.0257 215.7C93.3911 215.7 92.8824 215.929 92.4997 216.386C92.1264 216.843 91.9397 217.38 91.9397 217.996ZM104.128 216.022C103.353 216.022 102.77 216.274 102.378 216.778C101.986 217.282 101.79 217.959 101.79 218.808V222H100.222V214.552H101.79V216.05C102.042 215.583 102.383 215.201 102.812 214.902C103.251 214.603 103.713 214.449 104.198 214.44L104.212 216.022C104.184 216.022 104.156 216.022 104.128 216.022ZM111.952 222H110.524V221.006C109.908 221.743 109.082 222.112 108.046 222.112C107.271 222.112 106.627 221.893 106.114 221.454C105.61 221.015 105.358 220.432 105.358 219.704C105.358 218.967 105.629 218.416 106.17 218.052C106.711 217.688 107.444 217.506 108.368 217.506H110.398V217.226C110.398 216.237 109.847 215.742 108.746 215.742C108.055 215.742 107.337 215.994 106.59 216.498L105.89 215.518C106.795 214.799 107.822 214.44 108.97 214.44C109.847 214.44 110.561 214.664 111.112 215.112C111.672 215.551 111.952 216.246 111.952 217.198V222ZM110.384 219.228V218.598H108.62C107.491 218.598 106.926 218.953 106.926 219.662C106.926 220.026 107.066 220.306 107.346 220.502C107.626 220.689 108.013 220.782 108.508 220.782C109.012 220.782 109.451 220.642 109.824 220.362C110.197 220.082 110.384 219.704 110.384 219.228ZM117.373 222.112C116.43 222.112 115.609 221.757 114.909 221.048C114.209 220.339 113.859 219.405 113.859 218.248C113.859 217.091 114.218 216.167 114.937 215.476C115.655 214.785 116.509 214.44 117.499 214.44C118.497 214.44 119.3 214.86 119.907 215.7V211.612H121.475V222H119.907V220.88C119.328 221.701 118.483 222.112 117.373 222.112ZM115.427 218.318C115.427 219.027 115.655 219.606 116.113 220.054C116.57 220.502 117.107 220.726 117.723 220.726C118.339 220.726 118.861 220.502 119.291 220.054C119.72 219.597 119.935 219.013 119.935 218.304C119.935 217.595 119.72 217.002 119.291 216.526C118.861 216.05 118.334 215.812 117.709 215.812C117.083 215.812 116.547 216.05 116.099 216.526C115.651 217.002 115.427 217.599 115.427 218.318ZM129.149 218.584V214.552H130.717V222H129.149V220.642C128.897 221.099 128.547 221.459 128.099 221.72C127.66 221.981 127.184 222.112 126.671 222.112C125.831 222.112 125.15 221.855 124.627 221.342C124.114 220.829 123.857 220.087 123.857 219.116V214.552H125.425V218.64C125.425 220.012 125.994 220.698 127.133 220.698C127.674 220.698 128.146 220.521 128.547 220.166C128.948 219.802 129.149 219.275 129.149 218.584ZM139.226 222H137.798V221.006C137.182 221.743 136.356 222.112 135.32 222.112C134.545 222.112 133.901 221.893 133.388 221.454C132.884 221.015 132.632 220.432 132.632 219.704C132.632 218.967 132.902 218.416 133.444 218.052C133.985 217.688 134.718 217.506 135.642 217.506H137.672V217.226C137.672 216.237 137.121 215.742 136.02 215.742C135.329 215.742 134.61 215.994 133.864 216.498L133.164 215.518C134.069 214.799 135.096 214.44 136.244 214.44C137.121 214.44 137.835 214.664 138.386 215.112C138.946 215.551 139.226 216.246 139.226 217.198V222ZM137.658 219.228V218.598H135.894C134.764 218.598 134.2 218.953 134.2 219.662C134.2 220.026 134.34 220.306 134.62 220.502C134.9 220.689 135.287 220.782 135.782 220.782C136.286 220.782 136.724 220.642 137.098 220.362C137.471 220.082 137.658 219.704 137.658 219.228ZM143.177 222H141.609V211.612H143.177V222ZM155.726 222H154.298V221.006C153.682 221.743 152.856 222.112 151.82 222.112C151.046 222.112 150.402 221.893 149.888 221.454C149.384 221.015 149.132 220.432 149.132 219.704C149.132 218.967 149.403 218.416 149.944 218.052C150.486 217.688 151.218 217.506 152.142 217.506H154.172V217.226C154.172 216.237 153.622 215.742 152.52 215.742C151.83 215.742 151.111 215.994 150.364 216.498L149.664 215.518C150.57 214.799 151.596 214.44 152.744 214.44C153.622 214.44 154.336 214.664 154.886 215.112C155.446 215.551 155.726 216.246 155.726 217.198V222ZM154.158 219.228V218.598H152.394C151.265 218.598 150.7 218.953 150.7 219.662C150.7 220.026 150.84 220.306 151.12 220.502C151.4 220.689 151.788 220.782 152.282 220.782C152.786 220.782 153.225 220.642 153.598 220.362C153.972 220.082 154.158 219.704 154.158 219.228ZM161.413 222.112C160.377 222.112 159.486 221.762 158.739 221.062C157.992 220.353 157.619 219.429 157.619 218.29C157.619 217.151 158.006 216.227 158.781 215.518C159.565 214.799 160.517 214.44 161.637 214.44C162.757 214.44 163.704 214.827 164.479 215.602L163.555 216.736C162.911 216.176 162.262 215.896 161.609 215.896C160.956 215.896 160.386 216.115 159.901 216.554C159.425 216.983 159.187 217.543 159.187 218.234C159.187 218.915 159.425 219.494 159.901 219.97C160.377 220.446 160.96 220.684 161.651 220.684C162.351 220.684 163.009 220.367 163.625 219.732L164.549 220.74C163.644 221.655 162.598 222.112 161.413 222.112ZM169.679 222.112C168.643 222.112 167.752 221.762 167.005 221.062C166.259 220.353 165.885 219.429 165.885 218.29C165.885 217.151 166.273 216.227 167.047 215.518C167.831 214.799 168.783 214.44 169.903 214.44C171.023 214.44 171.971 214.827 172.745 215.602L171.821 216.736C171.177 216.176 170.529 215.896 169.875 215.896C169.222 215.896 168.653 216.115 168.167 216.554C167.691 216.983 167.453 217.543 167.453 218.234C167.453 218.915 167.691 219.494 168.167 219.97C168.643 220.446 169.227 220.684 169.917 220.684C170.617 220.684 171.275 220.367 171.891 219.732L172.815 220.74C171.91 221.655 170.865 222.112 169.679 222.112ZM179.85 218.584V214.552H181.418V222H179.85V220.642C179.598 221.099 179.248 221.459 178.8 221.72C178.361 221.981 177.885 222.112 177.372 222.112C176.532 222.112 175.85 221.855 175.328 221.342C174.814 220.829 174.558 220.087 174.558 219.116V214.552H176.126V218.64C176.126 220.012 176.695 220.698 177.834 220.698C178.375 220.698 178.846 220.521 179.248 220.166C179.649 219.802 179.85 219.275 179.85 218.584ZM185.461 217.968V222H183.893V214.552H185.461V215.91C185.685 215.453 186.021 215.093 186.469 214.832C186.926 214.571 187.416 214.44 187.939 214.44C189.115 214.44 189.913 214.925 190.333 215.896C191.07 214.925 191.989 214.44 193.091 214.44C193.931 214.44 194.607 214.697 195.121 215.21C195.643 215.723 195.905 216.465 195.905 217.436V222H194.337V217.912C194.337 216.54 193.767 215.854 192.629 215.854C192.097 215.854 191.63 216.027 191.229 216.372C190.837 216.708 190.631 217.203 190.613 217.856V222H189.045V217.912C189.045 217.203 188.919 216.685 188.667 216.358C188.415 216.022 188.018 215.854 187.477 215.854C186.935 215.854 186.464 216.036 186.063 216.4C185.661 216.755 185.461 217.277 185.461 217.968ZM203.492 218.584V214.552H205.06V222H203.492V220.642C203.24 221.099 202.89 221.459 202.442 221.72C202.003 221.981 201.527 222.112 201.014 222.112C200.174 222.112 199.493 221.855 198.97 221.342C198.457 220.829 198.2 220.087 198.2 219.116V214.552H199.768V218.64C199.768 220.012 200.337 220.698 201.476 220.698C202.017 220.698 202.489 220.521 202.89 220.166C203.291 219.802 203.492 219.275 203.492 218.584ZM209.103 222H207.535V211.612H209.103V222ZM217.611 222H216.183V221.006C215.567 221.743 214.741 222.112 213.705 222.112C212.93 222.112 212.286 221.893 211.773 221.454C211.269 221.015 211.017 220.432 211.017 219.704C211.017 218.967 211.287 218.416 211.829 218.052C212.37 217.688 213.103 217.506 214.027 217.506H216.057V217.226C216.057 216.237 215.506 215.742 214.405 215.742C213.714 215.742 212.995 215.994 212.249 216.498L211.549 215.518C212.454 214.799 213.481 214.44 214.629 214.44C215.506 214.44 216.22 214.664 216.771 215.112C217.331 215.551 217.611 216.246 217.611 217.198V222ZM216.043 219.228V218.598H214.279C213.149 218.598 212.585 218.953 212.585 219.662C212.585 220.026 212.725 220.306 213.005 220.502C213.285 220.689 213.672 220.782 214.167 220.782C214.671 220.782 215.109 220.642 215.483 220.362C215.856 220.082 216.043 219.704 216.043 219.228ZM221.843 215.812V219.592C221.843 219.947 221.937 220.231 222.123 220.446C222.31 220.651 222.571 220.754 222.907 220.754C223.243 220.754 223.565 220.591 223.873 220.264L224.517 221.37C223.967 221.865 223.355 222.112 222.683 222.112C222.021 222.112 221.451 221.883 220.975 221.426C220.509 220.959 220.275 220.334 220.275 219.55V215.812H219.337V214.552H220.275V212.214H221.843V214.552H223.803V215.812H221.843ZM227.531 222H225.963V214.552H227.531V222ZM226.061 213.068C225.865 212.872 225.767 212.639 225.767 212.368C225.767 212.097 225.865 211.864 226.061 211.668C226.257 211.472 226.49 211.374 226.761 211.374C227.032 211.374 227.265 211.472 227.461 211.668C227.657 211.864 227.755 212.097 227.755 212.368C227.755 212.639 227.657 212.872 227.461 213.068C227.265 213.264 227.032 213.362 226.761 213.362C226.49 213.362 226.257 213.264 226.061 213.068ZM231.741 220.04C232.189 220.488 232.753 220.712 233.435 220.712C234.116 220.712 234.676 220.488 235.115 220.04C235.563 219.583 235.787 218.995 235.787 218.276C235.787 217.557 235.563 216.974 235.115 216.526C234.676 216.069 234.116 215.84 233.435 215.84C232.753 215.84 232.189 216.069 231.741 216.526C231.302 216.974 231.083 217.557 231.083 218.276C231.083 218.995 231.302 219.583 231.741 220.04ZM236.235 221.006C235.488 221.743 234.555 222.112 233.435 222.112C232.315 222.112 231.381 221.743 230.635 221.006C229.888 220.259 229.515 219.349 229.515 218.276C229.515 217.203 229.888 216.297 230.635 215.56C231.381 214.813 232.315 214.44 233.435 214.44C234.555 214.44 235.488 214.813 236.235 215.56C236.981 216.297 237.355 217.203 237.355 218.276C237.355 219.349 236.981 220.259 236.235 221.006ZM240.906 217.968V222H239.338V214.552H240.906V215.91C241.158 215.453 241.503 215.093 241.942 214.832C242.39 214.571 242.87 214.44 243.384 214.44C244.224 214.44 244.9 214.697 245.414 215.21C245.936 215.723 246.198 216.465 246.198 217.436V222H244.63V217.912C244.63 216.54 244.06 215.854 242.922 215.854C242.38 215.854 241.909 216.036 241.508 216.4C241.106 216.755 240.906 217.277 240.906 217.968ZM254.366 220.04C254.814 220.488 255.379 220.712 256.06 220.712C256.741 220.712 257.301 220.488 257.74 220.04C258.188 219.583 258.412 218.995 258.412 218.276C258.412 217.557 258.188 216.974 257.74 216.526C257.301 216.069 256.741 215.84 256.06 215.84C255.379 215.84 254.814 216.069 254.366 216.526C253.927 216.974 253.708 217.557 253.708 218.276C253.708 218.995 253.927 219.583 254.366 220.04ZM258.86 221.006C258.113 221.743 257.18 222.112 256.06 222.112C254.94 222.112 254.007 221.743 253.26 221.006C252.513 220.259 252.14 219.349 252.14 218.276C252.14 217.203 252.513 216.297 253.26 215.56C254.007 214.813 254.94 214.44 256.06 214.44C257.18 214.44 258.113 214.813 258.86 215.56C259.607 216.297 259.98 217.203 259.98 218.276C259.98 219.349 259.607 220.259 258.86 221.006ZM263.786 213.936V214.552H265.746V215.812H263.786V222H262.218V215.812H261.28V214.552H262.218V213.978C262.218 213.194 262.451 212.573 262.918 212.116C263.394 211.649 263.963 211.416 264.626 211.416C265.298 211.416 265.909 211.663 266.46 212.158L265.816 213.264C265.508 212.937 265.186 212.774 264.85 212.774C264.514 212.774 264.252 212.881 264.066 213.096C263.879 213.301 263.786 213.581 263.786 213.936ZM61.702 242H60.134V234.552H61.702V242ZM60.232 233.068C60.036 232.872 59.938 232.639 59.938 232.368C59.938 232.097 60.036 231.864 60.232 231.668C60.428 231.472 60.6613 231.374 60.932 231.374C61.2027 231.374 61.436 231.472 61.632 231.668C61.828 231.864 61.926 232.097 61.926 232.368C61.926 232.639 61.828 232.872 61.632 233.068C61.436 233.264 61.2027 233.362 60.932 233.362C60.6613 233.362 60.428 233.264 60.232 233.068ZM65.7438 237.968V242H64.1758V234.552H65.7438V235.91C65.9958 235.453 66.3411 235.093 66.7798 234.832C67.2278 234.571 67.7085 234.44 68.2218 234.44C69.0618 234.44 69.7385 234.697 70.2518 235.21C70.7745 235.723 71.0358 236.465 71.0358 237.436V242H69.4678V237.912C69.4678 236.54 68.8985 235.854 67.7598 235.854C67.2185 235.854 66.7471 236.036 66.3458 236.4C65.9445 236.755 65.7438 237.277 65.7438 237.968ZM75.2902 233.936V234.552H77.2502V235.812H75.2902V242H73.7222V235.812H72.7842V234.552H73.7222V233.978C73.7222 233.194 73.9556 232.573 74.4222 232.116C74.8982 231.649 75.4676 231.416 76.1302 231.416C76.8022 231.416 77.4136 231.663 77.9642 232.158L77.3202 233.264C77.0122 232.937 76.6902 232.774 76.3542 232.774C76.0182 232.774 75.7569 232.881 75.5702 233.096C75.3836 233.301 75.2902 233.581 75.2902 233.936ZM80.5169 240.04C80.9649 240.488 81.5295 240.712 82.2109 240.712C82.8922 240.712 83.4522 240.488 83.8909 240.04C84.3389 239.583 84.5629 238.995 84.5629 238.276C84.5629 237.557 84.3389 236.974 83.8909 236.526C83.4522 236.069 82.8922 235.84 82.2109 235.84C81.5295 235.84 80.9649 236.069 80.5169 236.526C80.0782 236.974 79.8589 237.557 79.8589 238.276C79.8589 238.995 80.0782 239.583 80.5169 240.04ZM85.0109 241.006C84.2642 241.743 83.3309 242.112 82.2109 242.112C81.0909 242.112 80.1575 241.743 79.4109 241.006C78.6642 240.259 78.2909 239.349 78.2909 238.276C78.2909 237.203 78.6642 236.297 79.4109 235.56C80.1575 234.813 81.0909 234.44 82.2109 234.44C83.3309 234.44 84.2642 234.813 85.0109 235.56C85.7575 236.297 86.1309 237.203 86.1309 238.276C86.1309 239.349 85.7575 240.259 85.0109 241.006ZM92.0197 236.022C91.245 236.022 90.6617 236.274 90.2697 236.778C89.8777 237.282 89.6817 237.959 89.6817 238.808V242H88.1137V234.552H89.6817V236.05C89.9337 235.583 90.2744 235.201 90.7037 234.902C91.1424 234.603 91.6044 234.449 92.0897 234.44L92.1037 236.022C92.0757 236.022 92.0477 236.022 92.0197 236.022ZM95.4461 237.968V242H93.8781V234.552H95.4461V235.91C95.6701 235.453 96.0061 235.093 96.4541 234.832C96.9115 234.571 97.4015 234.44 97.9241 234.44C99.1001 234.44 99.8981 234.925 100.318 235.896C101.055 234.925 101.975 234.44 103.076 234.44C103.916 234.44 104.593 234.697 105.106 235.21C105.629 235.723 105.89 236.465 105.89 237.436V242H104.322V237.912C104.322 236.54 103.753 235.854 102.614 235.854C102.082 235.854 101.615 236.027 101.214 236.372C100.822 236.708 100.617 237.203 100.598 237.856V242H99.0301V237.912C99.0301 237.203 98.9041 236.685 98.6521 236.358C98.4001 236.022 98.0035 235.854 97.4621 235.854C96.9208 235.854 96.4495 236.036 96.0481 236.4C95.6468 236.755 95.4461 237.277 95.4461 237.968ZM114.304 242H112.876V241.006C112.26 241.743 111.434 242.112 110.398 242.112C109.623 242.112 108.979 241.893 108.466 241.454C107.962 241.015 107.71 240.432 107.71 239.704C107.71 238.967 107.98 238.416 108.522 238.052C109.063 237.688 109.796 237.506 110.72 237.506H112.75V237.226C112.75 236.237 112.199 235.742 111.098 235.742C110.407 235.742 109.688 235.994 108.942 236.498L108.242 235.518C109.147 234.799 110.174 234.44 111.322 234.44C112.199 234.44 112.913 234.664 113.464 235.112C114.024 235.551 114.304 236.246 114.304 237.198V242ZM112.736 239.228V238.598H110.972C109.842 238.598 109.278 238.953 109.278 239.662C109.278 240.026 109.418 240.306 109.698 240.502C109.978 240.689 110.365 240.782 110.86 240.782C111.364 240.782 111.802 240.642 112.176 240.362C112.549 240.082 112.736 239.704 112.736 239.228ZM118.536 235.812V239.592C118.536 239.947 118.63 240.231 118.816 240.446C119.003 240.651 119.264 240.754 119.6 240.754C119.936 240.754 120.258 240.591 120.566 240.264L121.21 241.37C120.66 241.865 120.048 242.112 119.376 242.112C118.714 242.112 118.144 241.883 117.668 241.426C117.202 240.959 116.968 240.334 116.968 239.55V235.812H116.03V234.552H116.968V232.214H118.536V234.552H120.496V235.812H118.536ZM124.224 242H122.656V234.552H124.224V242ZM122.754 233.068C122.558 232.872 122.46 232.639 122.46 232.368C122.46 232.097 122.558 231.864 122.754 231.668C122.95 231.472 123.183 231.374 123.454 231.374C123.725 231.374 123.958 231.472 124.154 231.668C124.35 231.864 124.448 232.097 124.448 232.368C124.448 232.639 124.35 232.872 124.154 233.068C123.958 233.264 123.725 233.362 123.454 233.362C123.183 233.362 122.95 233.264 122.754 233.068ZM128.434 240.04C128.882 240.488 129.446 240.712 130.128 240.712C130.809 240.712 131.369 240.488 131.808 240.04C132.256 239.583 132.48 238.995 132.48 238.276C132.48 237.557 132.256 236.974 131.808 236.526C131.369 236.069 130.809 235.84 130.128 235.84C129.446 235.84 128.882 236.069 128.434 236.526C127.995 236.974 127.776 237.557 127.776 238.276C127.776 238.995 127.995 239.583 128.434 240.04ZM132.928 241.006C132.181 241.743 131.248 242.112 130.128 242.112C129.008 242.112 128.074 241.743 127.328 241.006C126.581 240.259 126.208 239.349 126.208 238.276C126.208 237.203 126.581 236.297 127.328 235.56C128.074 234.813 129.008 234.44 130.128 234.44C131.248 234.44 132.181 234.813 132.928 235.56C133.674 236.297 134.048 237.203 134.048 238.276C134.048 239.349 133.674 240.259 132.928 241.006ZM137.598 237.968V242H136.03V234.552H137.598V235.91C137.85 235.453 138.196 235.093 138.634 234.832C139.082 234.571 139.563 234.44 140.076 234.44C140.916 234.44 141.593 234.697 142.106 235.21C142.629 235.723 142.89 236.465 142.89 237.436V242H141.322V237.912C141.322 236.54 140.753 235.854 139.614 235.854C139.073 235.854 138.602 236.036 138.2 236.4C137.799 236.755 137.598 237.277 137.598 237.968ZM155.357 242H153.929V241.006C153.313 241.743 152.487 242.112 151.451 242.112C150.676 242.112 150.032 241.893 149.519 241.454C149.015 241.015 148.763 240.432 148.763 239.704C148.763 238.967 149.034 238.416 149.575 238.052C150.116 237.688 150.849 237.506 151.773 237.506H153.803V237.226C153.803 236.237 153.252 235.742 152.151 235.742C151.46 235.742 150.742 235.994 149.995 236.498L149.295 235.518C150.2 234.799 151.227 234.44 152.375 234.44C153.252 234.44 153.966 234.664 154.517 235.112C155.077 235.551 155.357 236.246 155.357 237.198V242ZM153.789 239.228V238.598H152.025C150.896 238.598 150.331 238.953 150.331 239.662C150.331 240.026 150.471 240.306 150.751 240.502C151.031 240.689 151.418 240.782 151.913 240.782C152.417 240.782 152.856 240.642 153.229 240.362C153.602 240.082 153.789 239.704 153.789 239.228ZM161.73 234.44C162.729 234.44 163.583 234.785 164.292 235.476C165.001 236.167 165.356 237.086 165.356 238.234C165.356 239.382 165.001 240.315 164.292 241.034C163.592 241.753 162.771 242.112 161.828 242.112C160.895 242.112 160.055 241.701 159.308 240.88V242H157.74V231.612H159.308V235.854C159.924 234.911 160.731 234.44 161.73 234.44ZM159.28 238.29C159.28 238.999 159.495 239.583 159.924 240.04C160.353 240.488 160.876 240.712 161.492 240.712C162.108 240.712 162.645 240.488 163.102 240.04C163.559 239.592 163.788 239.013 163.788 238.304C163.788 237.585 163.564 236.993 163.116 236.526C162.668 236.05 162.131 235.812 161.506 235.812C160.881 235.812 160.353 236.05 159.924 236.526C159.495 236.993 159.28 237.581 159.28 238.29ZM169.082 240.04C169.53 240.488 170.095 240.712 170.776 240.712C171.457 240.712 172.017 240.488 172.456 240.04C172.904 239.583 173.128 238.995 173.128 238.276C173.128 237.557 172.904 236.974 172.456 236.526C172.017 236.069 171.457 235.84 170.776 235.84C170.095 235.84 169.53 236.069 169.082 236.526C168.643 236.974 168.424 237.557 168.424 238.276C168.424 238.995 168.643 239.583 169.082 240.04ZM173.576 241.006C172.829 241.743 171.896 242.112 170.776 242.112C169.656 242.112 168.723 241.743 167.976 241.006C167.229 240.259 166.856 239.349 166.856 238.276C166.856 237.203 167.229 236.297 167.976 235.56C168.723 234.813 169.656 234.44 170.776 234.44C171.896 234.44 172.829 234.813 173.576 235.56C174.323 236.297 174.696 237.203 174.696 238.276C174.696 239.349 174.323 240.259 173.576 241.006ZM181.887 238.584V234.552H183.455V242H181.887V240.642C181.635 241.099 181.285 241.459 180.837 241.72C180.398 241.981 179.922 242.112 179.409 242.112C178.569 242.112 177.888 241.855 177.365 241.342C176.852 240.829 176.595 240.087 176.595 239.116V234.552H178.163V238.64C178.163 240.012 178.732 240.698 179.871 240.698C180.412 240.698 180.884 240.521 181.285 240.166C181.686 239.802 181.887 239.275 181.887 238.584ZM187.862 235.812V239.592C187.862 239.947 187.955 240.231 188.142 240.446C188.328 240.651 188.59 240.754 188.926 240.754C189.262 240.754 189.584 240.591 189.892 240.264L190.536 241.37C189.985 241.865 189.374 242.112 188.702 242.112C188.039 242.112 187.47 241.883 186.994 241.426C186.527 240.959 186.294 240.334 186.294 239.55V235.812H185.356V234.552H186.294V232.214H187.862V234.552H189.822V235.812H187.862ZM202.057 242H200.629V241.006C200.013 241.743 199.187 242.112 198.151 242.112C197.376 242.112 196.732 241.893 196.219 241.454C195.715 241.015 195.463 240.432 195.463 239.704C195.463 238.967 195.734 238.416 196.275 238.052C196.816 237.688 197.549 237.506 198.473 237.506H200.503V237.226C200.503 236.237 199.952 235.742 198.851 235.742C198.16 235.742 197.442 235.994 196.695 236.498L195.995 235.518C196.9 234.799 197.927 234.44 199.075 234.44C199.952 234.44 200.666 234.664 201.217 235.112C201.777 235.551 202.057 236.246 202.057 237.198V242ZM200.489 239.228V238.598H198.725C197.596 238.598 197.031 238.953 197.031 239.662C197.031 240.026 197.171 240.306 197.451 240.502C197.731 240.689 198.118 240.782 198.613 240.782C199.117 240.782 199.556 240.642 199.929 240.362C200.302 240.082 200.489 239.704 200.489 239.228ZM206.29 235.812V239.592C206.29 239.947 206.383 240.231 206.57 240.446C206.756 240.651 207.018 240.754 207.354 240.754C207.69 240.754 208.012 240.591 208.32 240.264L208.964 241.37C208.413 241.865 207.802 242.112 207.13 242.112C206.467 242.112 205.898 241.883 205.422 241.426C204.955 240.959 204.722 240.334 204.722 239.55V235.812H203.784V234.552H204.722V232.214H206.29V234.552H208.25V235.812H206.29ZM212.091 240.04C212.539 240.488 213.103 240.712 213.785 240.712C214.466 240.712 215.026 240.488 215.465 240.04C215.913 239.583 216.137 238.995 216.137 238.276C216.137 237.557 215.913 236.974 215.465 236.526C215.026 236.069 214.466 235.84 213.785 235.84C213.103 235.84 212.539 236.069 212.091 236.526C211.652 236.974 211.433 237.557 211.433 238.276C211.433 238.995 211.652 239.583 212.091 240.04ZM216.585 241.006C215.838 241.743 214.905 242.112 213.785 242.112C212.665 242.112 211.731 241.743 210.985 241.006C210.238 240.259 209.865 239.349 209.865 238.276C209.865 237.203 210.238 236.297 210.985 235.56C211.731 234.813 212.665 234.44 213.785 234.44C214.905 234.44 215.838 234.813 216.585 235.56C217.331 236.297 217.705 237.203 217.705 238.276C217.705 239.349 217.331 240.259 216.585 241.006ZM221.256 237.968V242H219.688V234.552H221.256V235.91C221.48 235.453 221.816 235.093 222.264 234.832C222.721 234.571 223.211 234.44 223.734 234.44C224.91 234.44 225.708 234.925 226.128 235.896C226.865 234.925 227.784 234.44 228.886 234.44C229.726 234.44 230.402 234.697 230.916 235.21C231.438 235.723 231.7 236.465 231.7 237.436V242H230.132V237.912C230.132 236.54 229.562 235.854 228.424 235.854C227.892 235.854 227.425 236.027 227.024 236.372C226.632 236.708 226.426 237.203 226.408 237.856V242H224.84V237.912C224.84 237.203 224.714 236.685 224.462 236.358C224.21 236.022 223.813 235.854 223.272 235.854C222.73 235.854 222.259 236.036 221.858 236.4C221.456 236.755 221.256 237.277 221.256 237.968ZM235.647 242H234.079V234.552H235.647V242ZM234.177 233.068C233.981 232.872 233.883 232.639 233.883 232.368C233.883 232.097 233.981 231.864 234.177 231.668C234.373 231.472 234.606 231.374 234.877 231.374C235.148 231.374 235.381 231.472 235.577 231.668C235.773 231.864 235.871 232.097 235.871 232.368C235.871 232.639 235.773 232.872 235.577 233.068C235.381 233.264 235.148 233.362 234.877 233.362C234.606 233.362 234.373 233.264 234.177 233.068ZM241.425 242.112C240.389 242.112 239.497 241.762 238.751 241.062C238.004 240.353 237.631 239.429 237.631 238.29C237.631 237.151 238.018 236.227 238.793 235.518C239.577 234.799 240.529 234.44 241.649 234.44C242.769 234.44 243.716 234.827 244.491 235.602L243.567 236.736C242.923 236.176 242.274 235.896 241.621 235.896C240.967 235.896 240.398 236.115 239.913 236.554C239.437 236.983 239.199 237.543 239.199 238.234C239.199 238.915 239.437 239.494 239.913 239.97C240.389 240.446 240.972 240.684 241.663 240.684C242.363 240.684 243.021 240.367 243.637 239.732L244.561 240.74C243.655 241.655 242.61 242.112 241.425 242.112ZM256.463 242H255.035V241.006C254.419 241.743 253.593 242.112 252.557 242.112C251.782 242.112 251.138 241.893 250.625 241.454C250.121 241.015 249.869 240.432 249.869 239.704C249.869 238.967 250.14 238.416 250.681 238.052C251.222 237.688 251.955 237.506 252.879 237.506H254.909V237.226C254.909 236.237 254.358 235.742 253.257 235.742C252.566 235.742 251.848 235.994 251.101 236.498L250.401 235.518C251.306 234.799 252.333 234.44 253.481 234.44C254.358 234.44 255.072 234.664 255.623 235.112C256.183 235.551 256.463 236.246 256.463 237.198V242ZM254.895 239.228V238.598H253.131C252.002 238.598 251.437 238.953 251.437 239.662C251.437 240.026 251.577 240.306 251.857 240.502C252.137 240.689 252.524 240.782 253.019 240.782C253.523 240.782 253.962 240.642 254.335 240.362C254.708 240.082 254.895 239.704 254.895 239.228ZM260.414 237.968V242H258.846V234.552H260.414V235.91C260.666 235.453 261.011 235.093 261.45 234.832C261.898 234.571 262.378 234.44 262.892 234.44C263.732 234.44 264.408 234.697 264.922 235.21C265.444 235.723 265.706 236.465 265.706 237.436V242H264.138V237.912C264.138 236.54 263.568 235.854 262.43 235.854C261.888 235.854 261.417 236.036 261.016 236.4C260.614 236.755 260.414 237.277 260.414 237.968ZM271.134 242.112C270.192 242.112 269.37 241.757 268.67 241.048C267.97 240.339 267.62 239.405 267.62 238.248C267.62 237.091 267.98 236.167 268.698 235.476C269.417 234.785 270.271 234.44 271.26 234.44C272.259 234.44 273.062 234.86 273.668 235.7V231.612H275.236V242H273.668V240.88C273.09 241.701 272.245 242.112 271.134 242.112ZM269.188 238.318C269.188 239.027 269.417 239.606 269.874 240.054C270.332 240.502 270.868 240.726 271.484 240.726C272.1 240.726 272.623 240.502 273.052 240.054C273.482 239.597 273.696 239.013 273.696 238.304C273.696 237.595 273.482 237.002 273.052 236.526C272.623 236.05 272.096 235.812 271.47 235.812C270.845 235.812 270.308 236.05 269.86 236.526C269.412 237.002 269.188 237.599 269.188 238.318ZM65.44 259.774C65.44 260.483 65.1833 261.053 64.67 261.482C64.1567 261.902 63.4987 262.112 62.696 262.112C62.1547 262.112 61.59 262.014 61.002 261.818C60.4233 261.622 59.91 261.347 59.462 260.992L60.218 259.774C61.086 260.427 61.926 260.754 62.738 260.754C63.0927 260.754 63.3727 260.675 63.578 260.516C63.7833 260.348 63.886 260.138 63.886 259.886C63.886 259.513 63.3913 259.177 62.402 258.878C62.3273 258.85 62.2713 258.831 62.234 258.822C60.6847 258.402 59.91 257.702 59.91 256.722C59.91 256.031 60.176 255.481 60.708 255.07C61.2493 254.65 61.9493 254.44 62.808 254.44C63.6667 254.44 64.4787 254.692 65.244 255.196L64.656 256.358C64.0493 255.957 63.3913 255.756 62.682 255.756C62.3087 255.756 62.0053 255.826 61.772 255.966C61.5387 256.097 61.422 256.297 61.422 256.568C61.422 256.811 61.5433 256.988 61.786 257.1C61.954 257.184 62.1873 257.263 62.486 257.338C62.794 257.413 63.0647 257.487 63.298 257.562C63.5313 257.637 63.7553 257.721 63.97 257.814C64.194 257.907 64.432 258.038 64.684 258.206C65.188 258.542 65.44 259.065 65.44 259.774ZM68.984 257.968V262H67.416V254.552H68.984V255.91C69.208 255.453 69.544 255.093 69.992 254.832C70.4494 254.571 70.9394 254.44 71.462 254.44C72.638 254.44 73.436 254.925 73.856 255.896C74.5934 254.925 75.5127 254.44 76.614 254.44C77.454 254.44 78.1307 254.697 78.644 255.21C79.1667 255.723 79.428 256.465 79.428 257.436V262H77.86V257.912C77.86 256.54 77.2907 255.854 76.152 255.854C75.62 255.854 75.1534 256.027 74.752 256.372C74.36 256.708 74.1547 257.203 74.136 257.856V262H72.568V257.912C72.568 257.203 72.442 256.685 72.19 256.358C71.938 256.022 71.5414 255.854 71 255.854C70.4587 255.854 69.9874 256.036 69.586 256.4C69.1847 256.755 68.984 257.277 68.984 257.968ZM87.8414 262H86.4134V261.006C85.7974 261.743 84.9714 262.112 83.9354 262.112C83.1608 262.112 82.5168 261.893 82.0034 261.454C81.4994 261.015 81.2474 260.432 81.2474 259.704C81.2474 258.967 81.5181 258.416 82.0594 258.052C82.6008 257.688 83.3334 257.506 84.2574 257.506H86.2874V257.226C86.2874 256.237 85.7368 255.742 84.6354 255.742C83.9448 255.742 83.2261 255.994 82.4794 256.498L81.7794 255.518C82.6848 254.799 83.7114 254.44 84.8594 254.44C85.7368 254.44 86.4508 254.664 87.0014 255.112C87.5614 255.551 87.8414 256.246 87.8414 257.198V262ZM86.2734 259.228V258.598H84.5094C83.3801 258.598 82.8154 258.953 82.8154 259.662C82.8154 260.026 82.9554 260.306 83.2354 260.502C83.5154 260.689 83.9028 260.782 84.3974 260.782C84.9014 260.782 85.3401 260.642 85.7134 260.362C86.0868 260.082 86.2734 259.704 86.2734 259.228ZM91.7922 262H90.2242V251.612H91.7922V262ZM95.834 262H94.266V251.612H95.834V262ZM98.1818 258.556V257.086H102.83V258.556H98.1818ZM110.472 259.774C110.472 260.483 110.215 261.053 109.702 261.482C109.189 261.902 108.531 262.112 107.728 262.112C107.187 262.112 106.622 262.014 106.034 261.818C105.455 261.622 104.942 261.347 104.494 260.992L105.25 259.774C106.118 260.427 106.958 260.754 107.77 260.754C108.125 260.754 108.405 260.675 108.61 260.516C108.815 260.348 108.918 260.138 108.918 259.886C108.918 259.513 108.423 259.177 107.434 258.878C107.359 258.85 107.303 258.831 107.266 258.822C105.717 258.402 104.942 257.702 104.942 256.722C104.942 256.031 105.208 255.481 105.74 255.07C106.281 254.65 106.981 254.44 107.84 254.44C108.699 254.44 109.511 254.692 110.276 255.196L109.688 256.358C109.081 255.957 108.423 255.756 107.714 255.756C107.341 255.756 107.037 255.826 106.804 255.966C106.571 256.097 106.454 256.297 106.454 256.568C106.454 256.811 106.575 256.988 106.818 257.1C106.986 257.184 107.219 257.263 107.518 257.338C107.826 257.413 108.097 257.487 108.33 257.562C108.563 257.637 108.787 257.721 109.002 257.814C109.226 257.907 109.464 258.038 109.716 258.206C110.22 258.542 110.472 259.065 110.472 259.774ZM115.752 262.112C114.716 262.112 113.825 261.762 113.078 261.062C112.331 260.353 111.958 259.429 111.958 258.29C111.958 257.151 112.345 256.227 113.12 255.518C113.904 254.799 114.856 254.44 115.976 254.44C117.096 254.44 118.043 254.827 118.818 255.602L117.894 256.736C117.25 256.176 116.601 255.896 115.948 255.896C115.295 255.896 114.725 256.115 114.24 256.554C113.764 256.983 113.526 257.543 113.526 258.234C113.526 258.915 113.764 259.494 114.24 259.97C114.716 260.446 115.299 260.684 115.99 260.684C116.69 260.684 117.348 260.367 117.964 259.732L118.888 260.74C117.983 261.655 116.937 262.112 115.752 262.112ZM126.694 262H125.266V261.006C124.65 261.743 123.824 262.112 122.788 262.112C122.013 262.112 121.369 261.893 120.856 261.454C120.352 261.015 120.1 260.432 120.1 259.704C120.1 258.967 120.37 258.416 120.912 258.052C121.453 257.688 122.186 257.506 123.11 257.506H125.14V257.226C125.14 256.237 124.589 255.742 123.488 255.742C122.797 255.742 122.078 255.994 121.332 256.498L120.632 255.518C121.537 254.799 122.564 254.44 123.712 254.44C124.589 254.44 125.303 254.664 125.854 255.112C126.414 255.551 126.694 256.246 126.694 257.198V262ZM125.126 259.228V258.598H123.362C122.232 258.598 121.668 258.953 121.668 259.662C121.668 260.026 121.808 260.306 122.088 260.502C122.368 260.689 122.755 260.782 123.25 260.782C123.754 260.782 124.192 260.642 124.566 260.362C124.939 260.082 125.126 259.704 125.126 259.228ZM130.645 262H129.077V251.612H130.645V262ZM140.048 258.962H134.21C134.248 259.503 134.495 259.942 134.952 260.278C135.41 260.605 135.932 260.768 136.52 260.768C137.454 260.768 138.163 260.474 138.648 259.886L139.544 260.866C138.742 261.697 137.696 262.112 136.408 262.112C135.363 262.112 134.472 261.767 133.734 261.076C133.006 260.376 132.642 259.443 132.642 258.276C132.642 257.1 133.016 256.167 133.762 255.476C134.509 254.785 135.386 254.44 136.394 254.44C137.412 254.44 138.275 254.748 138.984 255.364C139.694 255.971 140.048 256.811 140.048 257.884V258.962ZM134.21 257.73H138.48C138.48 257.105 138.284 256.624 137.892 256.288C137.5 255.952 137.015 255.784 136.436 255.784C135.867 255.784 135.354 255.961 134.896 256.316C134.439 256.661 134.21 257.133 134.21 257.73ZM150.004 254.44C151.003 254.44 151.857 254.785 152.566 255.476C153.276 256.167 153.63 257.086 153.63 258.234C153.63 259.382 153.276 260.315 152.566 261.034C151.866 261.753 151.045 262.112 150.102 262.112C149.169 262.112 148.329 261.701 147.582 260.88V262H146.014V251.612H147.582V255.854C148.198 254.911 149.006 254.44 150.004 254.44ZM147.554 258.29C147.554 258.999 147.769 259.583 148.198 260.04C148.628 260.488 149.15 260.712 149.766 260.712C150.382 260.712 150.919 260.488 151.376 260.04C151.834 259.592 152.062 259.013 152.062 258.304C152.062 257.585 151.838 256.993 151.39 256.526C150.942 256.05 150.406 255.812 149.78 255.812C149.155 255.812 148.628 256.05 148.198 256.526C147.769 256.993 147.554 257.581 147.554 258.29ZM162.551 258.962H156.713C156.75 259.503 156.997 259.942 157.455 260.278C157.912 260.605 158.435 260.768 159.023 260.768C159.956 260.768 160.665 260.474 161.151 259.886L162.047 260.866C161.244 261.697 160.199 262.112 158.911 262.112C157.865 262.112 156.974 261.767 156.237 261.076C155.509 260.376 155.145 259.443 155.145 258.276C155.145 257.1 155.518 256.167 156.265 255.476C157.011 254.785 157.889 254.44 158.897 254.44C159.914 254.44 160.777 254.748 161.487 255.364C162.196 255.971 162.551 256.811 162.551 257.884V258.962ZM156.713 257.73H160.983C160.983 257.105 160.787 256.624 160.395 256.288C160.003 255.952 159.517 255.784 158.939 255.784C158.369 255.784 157.856 255.961 157.399 256.316C156.941 256.661 156.713 257.133 156.713 257.73ZM166.043 257.968V262H164.475V251.626H166.043V255.91C166.267 255.453 166.603 255.093 167.051 254.832C167.508 254.571 167.998 254.44 168.521 254.44C169.361 254.44 170.038 254.697 170.551 255.21C171.074 255.723 171.335 256.465 171.335 257.436V262H169.767V257.912C169.767 256.54 169.198 255.854 168.059 255.854C167.518 255.854 167.046 256.036 166.645 256.4C166.244 256.755 166.043 257.277 166.043 257.968ZM179.76 262H178.332V261.006C177.716 261.743 176.89 262.112 175.854 262.112C175.079 262.112 174.435 261.893 173.922 261.454C173.418 261.015 173.166 260.432 173.166 259.704C173.166 258.967 173.436 258.416 173.978 258.052C174.519 257.688 175.252 257.506 176.176 257.506H178.206V257.226C178.206 256.237 177.655 255.742 176.554 255.742C175.863 255.742 175.144 255.994 174.398 256.498L173.698 255.518C174.603 254.799 175.63 254.44 176.778 254.44C177.655 254.44 178.369 254.664 178.92 255.112C179.48 255.551 179.76 256.246 179.76 257.198V262ZM178.192 259.228V258.598H176.428C175.298 258.598 174.734 258.953 174.734 259.662C174.734 260.026 174.874 260.306 175.154 260.502C175.434 260.689 175.821 260.782 176.316 260.782C176.82 260.782 177.258 260.642 177.632 260.362C178.005 260.082 178.192 259.704 178.192 259.228ZM184.035 262L181.039 254.552H182.663L184.931 260.18L187.199 254.552H188.823L185.827 262H184.035ZM191.84 262H190.272V254.552H191.84V262ZM190.37 253.068C190.174 252.872 190.076 252.639 190.076 252.368C190.076 252.097 190.174 251.864 190.37 251.668C190.566 251.472 190.8 251.374 191.07 251.374C191.341 251.374 191.574 251.472 191.77 251.668C191.966 251.864 192.064 252.097 192.064 252.368C192.064 252.639 191.966 252.872 191.77 253.068C191.574 253.264 191.341 253.362 191.07 253.362C190.8 253.362 190.566 253.264 190.37 253.068ZM196.05 260.04C196.498 260.488 197.063 260.712 197.744 260.712C198.425 260.712 198.985 260.488 199.424 260.04C199.872 259.583 200.096 258.995 200.096 258.276C200.096 257.557 199.872 256.974 199.424 256.526C198.985 256.069 198.425 255.84 197.744 255.84C197.063 255.84 196.498 256.069 196.05 256.526C195.611 256.974 195.392 257.557 195.392 258.276C195.392 258.995 195.611 259.583 196.05 260.04ZM200.544 261.006C199.797 261.743 198.864 262.112 197.744 262.112C196.624 262.112 195.691 261.743 194.944 261.006C194.197 260.259 193.824 259.349 193.824 258.276C193.824 257.203 194.197 256.297 194.944 255.56C195.691 254.813 196.624 254.44 197.744 254.44C198.864 254.44 199.797 254.813 200.544 255.56C201.291 256.297 201.664 257.203 201.664 258.276C201.664 259.349 201.291 260.259 200.544 261.006ZM208.855 258.584V254.552H210.423V262H208.855V260.642C208.603 261.099 208.253 261.459 207.805 261.72C207.366 261.981 206.89 262.112 206.377 262.112C205.537 262.112 204.856 261.855 204.333 261.342C203.82 260.829 203.563 260.087 203.563 259.116V254.552H205.131V258.64C205.131 260.012 205.7 260.698 206.839 260.698C207.38 260.698 207.852 260.521 208.253 260.166C208.654 259.802 208.855 259.275 208.855 258.584ZM216.804 256.022C216.029 256.022 215.446 256.274 215.054 256.778C214.662 257.282 214.466 257.959 214.466 258.808V262H212.898V254.552H214.466V256.05C214.718 255.583 215.058 255.201 215.488 254.902C215.926 254.603 216.388 254.449 216.874 254.44L216.888 256.022C216.86 256.022 216.832 256.022 216.804 256.022ZM218.117 261.804C217.921 261.599 217.823 261.351 217.823 261.062C217.823 260.773 217.921 260.53 218.117 260.334C218.323 260.129 218.57 260.026 218.859 260.026C219.149 260.026 219.396 260.129 219.601 260.334C219.807 260.53 219.909 260.773 219.909 261.062C219.909 261.351 219.807 261.599 219.601 261.804C219.396 262.009 219.149 262.112 218.859 262.112C218.57 262.112 218.323 262.009 218.117 261.804ZM222.241 261.804C222.045 261.599 221.947 261.351 221.947 261.062C221.947 260.773 222.045 260.53 222.241 260.334C222.446 260.129 222.694 260.026 222.983 260.026C223.272 260.026 223.52 260.129 223.725 260.334C223.93 260.53 224.033 260.773 224.033 261.062C224.033 261.351 223.93 261.599 223.725 261.804C223.52 262.009 223.272 262.112 222.983 262.112C222.694 262.112 222.446 262.009 222.241 261.804ZM226.365 261.804C226.169 261.599 226.071 261.351 226.071 261.062C226.071 260.773 226.169 260.53 226.365 260.334C226.57 260.129 226.818 260.026 227.107 260.026C227.396 260.026 227.644 260.129 227.849 260.334C228.054 260.53 228.157 260.773 228.157 261.062C228.157 261.351 228.054 261.599 227.849 261.804C227.644 262.009 227.396 262.112 227.107 262.112C226.818 262.112 226.57 262.009 226.365 261.804Z" fill="#737373"/>
</g>
<defs>
<filter id="filter0_d_2636_2716" x="0" y="0" width="366" height="334" filterUnits="userSpaceOnUse" color-interpolation-filters="sRGB">
<feFlood flood-opacity="0" result="BackgroundImageFix"/>
<feColorMatrix in="SourceAlpha" type="matrix" values="0 0 0 0 0 0 0 0 0 0 0 0 0 0 0 0 0 0 127 0" result="hardAlpha"/>
<feOffset dy="13"/>
<feGaussianBlur stdDeviation="9.5"/>
<feColorMatrix type="matrix" values="0 0 0 0 0 0 0 0 0 0 0 0 0 0 0 0 0 0 0.07 0"/>
<feBlend mode="normal" in2="BackgroundImageFix" result="effect1_dropShadow_2636_2716"/>
<feBlend mode="normal" in="SourceGraphic" in2="effect1_dropShadow_2636_2716" result="shape"/>
</filter>
<clipPath id="clip0_2636_2716">
<rect width="72" height="72" fill="white" transform="translate(59 41)"/>
</clipPath>
<clipPath id="clip1_2636_2716">
<rect width="66.7514" height="71.4089" fill="white" transform="translate(61.623 41.2954)"/>
</clipPath>
<clipPath id="clip2_2636_2716">
<rect width="9" height="8.99999" fill="white" transform="translate(95.0332 56.4541)"/>
</clipPath>
<clipPath id="clip3_2636_2716">
<rect width="15.7505" height="18.0001" fill="white" transform="translate(90.5332 76.7041)"/>
</clipPath>
<clipPath id="clip4_2636_2716">
<rect width="15.7499" height="18.0012" fill="white" transform="translate(97.2832 76.7031)"/>
</clipPath>
<clipPath id="clip5_2636_2716">
<rect width="66.7514" height="26.5991" fill="white" transform="translate(61.623 41.2954)"/>
</clipPath>
<clipPath id="clip6_2636_2716">
<rect width="17.9337" height="14.2842" fill="white" transform="translate(110.441 53.6104)"/>
</clipPath>
<clipPath id="clip7_2636_2716">
<rect width="13.5" height="13.5" fill="white" transform="translate(110.441 53.6113)"/>
</clipPath>
<clipPath id="clip8_2636_2716">
<rect width="20.7926" height="11.6665" fill="white" transform="translate(100.9 53.1963)"/>
</clipPath>
<clipPath id="clip9_2636_2716">
<rect width="20.7236" height="7.23548" fill="white" transform="translate(100.9 57.6265)"/>
</clipPath>
<clipPath id="clip10_2636_2716">
<rect width="23.4338" height="16.134" fill="white" transform="translate(80.5664 47.4624)"/>
</clipPath>
<clipPath id="clip11_2636_2716">
<rect width="23.3303" height="9.48603" fill="white" transform="translate(80.5664 54.1099)"/>
</clipPath>
<clipPath id="clip12_2636_2716">
<rect width="26.936" height="23.2865" fill="white" transform="translate(61.623 41.2954)"/>
</clipPath>
<clipPath id="clip13_2636_2716">
<rect width="22.5" height="22.5" fill="white" transform="translate(61.625 41.2974)"/>
</clipPath>
<clipPath id="clip14_2636_2716">
<rect width="18" height="18" fill="white" transform="translate(63.875 43.5474)"/>
</clipPath>
<clipPath id="clip15_2636_2716">
<rect width="8.85681" height="8.21873" fill="white" transform="translate(64.8691 43.6172)"/>
</clipPath>
<clipPath id="clip16_2636_2716">
<rect width="9" height="8.99999" fill="white" transform="translate(99.5332 56.4541)"/>
</clipPath>
<clipPath id="clip17_2636_2716">
<rect width="4.5" height="4.49999" fill="white" transform="translate(101.783 58.7041)"/>
</clipPath>
<clipPath id="clip18_2636_2716">
<rect width="9" height="9" fill="white" transform="translate(77.0332 103.704)"/>
</clipPath>
<clipPath id="clip19_2636_2716">
<rect width="9" height="9" fill="white" transform="translate(117.533 103.704)"/>
</clipPath>
<clipPath id="clip20_2636_2716">
<rect width="9" height="9" fill="white" transform="translate(97.2832 103.704)"/>
</clipPath>
<clipPath id="clip21_2636_2716">
<rect width="9" height="18" fill="white" transform="translate(97.2832 76.7041)"/>
</clipPath>
<clipPath id="clip22_2636_2716">
<rect width="9" height="18" fill="white" transform="translate(97.2832 76.7041)"/>
</clipPath>
</defs>
</svg>
