<svg width="366" height="334" viewBox="0 0 366 334" fill="none" xmlns="http://www.w3.org/2000/svg">
<g filter="url(#filter0_d_2636_2659)">
<rect width="328" height="296" transform="translate(19 6)" fill="white"/>
<g clip-path="url(#clip0_2636_2659)">
<g clip-path="url(#clip1_2636_2659)">
<g clip-path="url(#clip2_2636_2659)">
<path d="M128.75 95H65.75V59C65.75 56.5149 67.7649 54.5 70.25 54.5H124.25C126.735 54.5 128.75 56.5149 128.75 59V95Z" fill="#353744"/>
</g>
<g clip-path="url(#clip3_2636_2659)">
<path d="M128.75 95H65.75V97.25C65.75 99.7351 67.7649 101.75 70.25 101.75H124.25C126.735 101.75 128.75 99.7351 128.75 97.25V95Z" fill="#808080"/>
</g>
<g clip-path="url(#clip4_2636_2659)">
<path d="M124.25 95H65.75V59C65.75 56.5149 67.7649 54.5 70.25 54.5H119.75C122.235 54.5 124.25 56.5149 124.25 59V95Z" fill="#55525B"/>
</g>
<g clip-path="url(#clip5_2636_2659)">
<path d="M124.25 95H65.75V97.25C65.75 99.7351 67.7649 101.75 70.25 101.75H119.75C122.235 101.75 124.25 99.7351 124.25 97.25V95Z" fill="#DBDEE3"/>
</g>
<g clip-path="url(#clip6_2636_2659)">
<path d="M118.062 59H71.9375C71.006 59 70.25 59.756 70.25 60.6875V88.8125C70.25 89.744 71.006 90.5 71.9375 90.5H118.062C118.994 90.5 119.75 89.744 119.75 88.8125V60.6875C119.75 59.756 118.994 59 118.062 59Z" fill="#FBBE18"/>
</g>
<g clip-path="url(#clip7_2636_2659)">
<path d="M77 68H101.75C102.993 68 104 66.9931 104 65.75C104 64.5069 102.993 63.5 101.75 63.5H77C75.7569 63.5 74.75 64.5069 74.75 65.75C74.75 66.9931 75.7569 68 77 68Z" fill="#F68820"/>
</g>
<g clip-path="url(#clip8_2636_2659)">
<path d="M77 77H101.75C102.993 77 104 75.9931 104 74.75C104 73.5069 102.993 72.5 101.75 72.5H77C75.7569 72.5 74.75 73.5069 74.75 74.75C74.75 75.9931 75.7569 77 77 77Z" fill="#F68820"/>
</g>
<g clip-path="url(#clip9_2636_2659)">
<path d="M77 86H101.75C102.993 86 104 84.9931 104 83.75C104 82.5069 102.993 81.5 101.75 81.5H77C75.7569 81.5 74.75 82.5069 74.75 83.75C74.75 84.9931 75.7569 86 77 86Z" fill="#F68820"/>
</g>
<g clip-path="url(#clip10_2636_2659)">
<path d="M105.688 106.25H101.188V101.75H105.688V106.25Z" fill="#808080"/>
</g>
<g clip-path="url(#clip11_2636_2659)">
<path d="M90.5 101.75H101.188V106.25H90.5V101.75Z" fill="#B3B4B6"/>
</g>
<g clip-path="url(#clip12_2636_2659)">
<path d="M110.188 106.25H82.0625C79.5774 106.25 77.5625 108.265 77.5625 110.75H114.688C114.688 108.265 112.673 106.25 110.188 106.25Z" fill="#DBDEE3"/>
</g>
<g clip-path="url(#clip13_2636_2659)">
<path d="M110.188 106.25H105.688C103.202 106.25 101.188 108.265 101.188 110.75H114.688C114.688 108.265 112.673 106.25 110.188 106.25Z" fill="#808080"/>
</g>
<g clip-path="url(#clip14_2636_2659)">
<path d="M78.125 43.25H74.75C67.2946 43.25 61.25 49.2946 61.25 56.75C61.25 64.2054 67.2946 70.25 74.75 70.25H78.125C85.5804 70.25 91.625 64.2054 91.625 56.75C91.625 49.2946 85.5804 43.25 78.125 43.25Z" fill="#5C76B2"/>
</g>
<g clip-path="url(#clip15_2636_2659)">
<path d="M74.75 70.25C82.2058 70.25 88.25 64.2058 88.25 56.75C88.25 49.2942 82.2058 43.25 74.75 43.25C67.2942 43.25 61.25 49.2942 61.25 56.75C61.25 64.2058 67.2942 70.25 74.75 70.25Z" fill="#6FA4D8"/>
</g>
<g clip-path="url(#clip16_2636_2659)">
<path d="M74.75 68C80.9632 68 86 62.9632 86 56.75C86 50.5368 80.9632 45.5 74.75 45.5C68.5368 45.5 63.5 50.5368 63.5 56.75C63.5 62.9632 68.5368 68 74.75 68Z" fill="#55525B"/>
</g>
<g clip-path="url(#clip17_2636_2659)">
<path d="M74.75 57.3125C74.4395 57.3125 74.1875 57.0605 74.1875 56.75V47.75C74.1875 47.4395 74.4395 47.1875 74.75 47.1875C75.0605 47.1875 75.3125 47.4395 75.3125 47.75V56.75C75.3125 57.0605 75.0605 57.3125 74.75 57.3125Z" fill="#6FA4D8"/>
</g>
<g clip-path="url(#clip18_2636_2659)">
<path d="M69.9768 62.086C69.8328 62.086 69.6888 62.0309 69.5786 61.9218C69.3592 61.7024 69.3592 61.3458 69.5786 61.1264L74.3508 56.353C74.5702 56.1336 74.9268 56.1336 75.1462 56.353C75.3656 56.5724 75.3656 56.929 75.1462 57.1484L70.374 61.9218C70.2648 62.0309 70.1208 62.086 69.9768 62.086Z" fill="#6FA4D8"/>
</g>
<g clip-path="url(#clip19_2636_2659)">
<path d="M74.75 59C75.9926 59 77 57.9926 77 56.75C77 55.5074 75.9926 54.5 74.75 54.5C73.5074 54.5 72.5 55.5074 72.5 56.75C72.5 57.9926 73.5074 59 74.75 59Z" fill="#F68820"/>
</g>
<g clip-path="url(#clip20_2636_2659)">
<path d="M74.75 57.875C75.3713 57.875 75.875 57.3713 75.875 56.75C75.875 56.1287 75.3713 55.625 74.75 55.625C74.1287 55.625 73.625 56.1287 73.625 56.75C73.625 57.3713 74.1287 57.875 74.75 57.875Z" fill="#DBDEE3"/>
</g>
<g clip-path="url(#clip21_2636_2659)">
<path d="M66.875 57.3125H65.75C65.4395 57.3125 65.1875 57.0605 65.1875 56.75C65.1875 56.4395 65.4395 56.1875 65.75 56.1875H66.875C67.1855 56.1875 67.4375 56.4395 67.4375 56.75C67.4375 57.0605 67.1855 57.3125 66.875 57.3125Z" fill="#F68820"/>
</g>
<g clip-path="url(#clip22_2636_2659)">
<path d="M74.75 66.3125C74.4395 66.3125 74.1875 66.0605 74.1875 65.75V64.625C74.1875 64.3145 74.4395 64.0625 74.75 64.0625C75.0605 64.0625 75.3125 64.3145 75.3125 64.625V65.75C75.3125 66.0605 75.0605 66.3125 74.75 66.3125Z" fill="#F68820"/>
</g>
<g clip-path="url(#clip23_2636_2659)">
<path d="M83.75 57.3125H82.625C82.3145 57.3125 82.0625 57.0605 82.0625 56.75C82.0625 56.4395 82.3145 56.1875 82.625 56.1875H83.75C84.0605 56.1875 84.3125 56.4395 84.3125 56.75C84.3125 57.0605 84.0605 57.3125 83.75 57.3125Z" fill="#F68820"/>
</g>
<g clip-path="url(#clip24_2636_2659)">
<path d="M111.875 86C110.632 86 109.625 84.9931 109.625 83.75C109.625 82.5069 110.632 81.5 111.875 81.5C113.118 81.5 114.125 82.5069 114.125 83.75C114.125 84.9931 113.118 86 111.875 86Z" fill="#F68820"/>
</g>
<g clip-path="url(#clip25_2636_2659)">
<path d="M111.031 64.3439L111.875 65.1877L114.406 62.6564C114.872 62.1907 115.628 62.1907 116.093 62.6564C116.559 63.1222 116.559 63.8782 116.093 64.3439L112.718 67.7189C112.253 68.1847 111.497 68.1847 111.031 67.7189L109.343 66.0314C108.878 65.5657 108.878 64.8097 109.343 64.3439C109.809 63.8782 110.565 63.8782 111.031 64.3439Z" fill="#5C76B2"/>
</g>
<g clip-path="url(#clip26_2636_2659)">
<path d="M111.031 73.3439L111.875 74.1877L114.406 71.6564C114.872 71.1907 115.628 71.1907 116.093 71.6564C116.559 72.1222 116.559 72.8782 116.093 73.3439L112.718 76.7189C112.253 77.1847 111.497 77.1847 111.031 76.7189L109.343 75.0314C108.878 74.5657 108.878 73.8097 109.343 73.3439C109.809 72.8782 110.565 72.8782 111.031 73.3439Z" fill="#5C76B2"/>
</g>
</g>
</g>
<path d="M68.768 154.688C70.608 154.688 72.112 153.96 73.28 152.504L75.68 154.976C73.776 157.12 71.528 158.192 68.936 158.192C66.36 158.192 64.232 157.376 62.552 155.744C60.888 154.112 60.056 152.056 60.056 149.576C60.056 147.08 60.904 145 62.6 143.336C64.312 141.672 66.4 140.84 68.864 140.84C71.616 140.84 73.92 141.888 75.776 143.984L73.448 146.624C72.264 145.152 70.792 144.416 69.032 144.416C67.624 144.416 66.416 144.88 65.408 145.808C64.416 146.72 63.92 147.96 63.92 149.528C63.92 151.08 64.392 152.328 65.336 153.272C66.28 154.216 67.424 154.688 68.768 154.688ZM89.5661 156.128C88.1101 157.504 86.3981 158.192 84.4301 158.192C82.4781 158.192 80.8621 157.592 79.5821 156.392C78.3021 155.176 77.6621 153.552 77.6621 151.52C77.6621 149.488 78.3101 147.872 79.6061 146.672C80.9181 145.472 82.4621 144.872 84.2381 144.872C86.0141 144.872 87.5181 145.408 88.7501 146.48C89.9981 147.552 90.6221 149.024 90.6221 150.896V152.816H81.2141C81.3261 153.52 81.6941 154.096 82.3181 154.544C82.9421 154.992 83.6461 155.216 84.4301 155.216C85.6941 155.216 86.7341 154.792 87.5501 153.944L89.5661 156.128ZM86.9741 150.248C86.8941 149.48 86.6061 148.888 86.1101 148.472C85.6141 148.056 85.0061 147.848 84.2861 147.848C83.5821 147.848 82.9341 148.064 82.3421 148.496C81.7501 148.928 81.4061 149.512 81.3101 150.248H86.9741ZM100.11 148.256C99.0381 148.256 98.2381 148.64 97.7101 149.408C97.1821 150.16 96.9181 151.16 96.9181 152.408V158H93.3181V145.088H96.9181V146.792C97.3821 146.264 97.9581 145.816 98.6461 145.448C99.3501 145.08 100.062 144.888 100.782 144.872L100.806 148.256H100.11ZM107.581 147.68V153.464C107.581 153.96 107.709 154.352 107.965 154.64C108.221 154.912 108.525 155.048 108.877 155.048C109.549 155.048 110.117 154.744 110.581 154.136L111.925 156.656C110.805 157.68 109.621 158.192 108.373 158.192C107.141 158.192 106.093 157.784 105.229 156.968C104.381 156.152 103.957 155.04 103.957 153.632V147.68H102.445V145.088H103.957V141.224H107.581V145.088H110.701V147.68H107.581ZM117.556 158H113.956V145.088H117.556V158ZM114.244 143.456C113.844 143.04 113.644 142.536 113.644 141.944C113.644 141.352 113.844 140.856 114.244 140.456C114.66 140.04 115.164 139.832 115.756 139.832C116.348 139.832 116.844 140.04 117.244 140.456C117.66 140.856 117.868 141.352 117.868 141.944C117.868 142.536 117.66 143.04 117.244 143.456C116.844 143.856 116.348 144.056 115.756 144.056C115.164 144.056 114.66 143.856 114.244 143.456ZM125.359 144.344V145.208H128.479V147.8H125.359V158H121.735V147.8H120.223V145.208H121.735V144.416C121.735 143.008 122.159 141.896 123.007 141.08C123.871 140.248 124.935 139.832 126.199 139.832C127.479 139.832 128.639 140.312 129.679 141.272L128.383 143.696C127.855 143.088 127.271 142.784 126.631 142.784C126.263 142.784 125.959 142.92 125.719 143.192C125.479 143.448 125.359 143.832 125.359 144.344ZM134.42 158H130.82V145.088H134.42V158ZM131.108 143.456C130.708 143.04 130.508 142.536 130.508 141.944C130.508 141.352 130.708 140.856 131.108 140.456C131.524 140.04 132.028 139.832 132.62 139.832C133.212 139.832 133.708 140.04 134.108 140.456C134.524 140.856 134.732 141.352 134.732 141.944C134.732 142.536 134.524 143.04 134.108 143.456C133.708 143.856 133.212 144.056 132.62 144.056C132.028 144.056 131.524 143.856 131.108 143.456ZM149.111 156.128C147.655 157.504 145.943 158.192 143.975 158.192C142.023 158.192 140.407 157.592 139.127 156.392C137.847 155.176 137.207 153.552 137.207 151.52C137.207 149.488 137.855 147.872 139.151 146.672C140.463 145.472 142.007 144.872 143.783 144.872C145.559 144.872 147.063 145.408 148.295 146.48C149.543 147.552 150.167 149.024 150.167 150.896V152.816H140.759C140.871 153.52 141.239 154.096 141.863 154.544C142.487 154.992 143.191 155.216 143.975 155.216C145.239 155.216 146.279 154.792 147.095 153.944L149.111 156.128ZM146.519 150.248C146.439 149.48 146.151 148.888 145.655 148.472C145.159 148.056 144.551 147.848 143.831 147.848C143.127 147.848 142.479 148.064 141.887 148.496C141.295 148.928 140.951 149.512 140.855 150.248H146.519ZM158.023 158.192C156.503 158.192 155.143 157.544 153.943 156.248C152.743 154.952 152.143 153.344 152.143 151.424C152.143 149.504 152.727 147.936 153.895 146.72C155.063 145.488 156.431 144.872 157.999 144.872C159.567 144.872 160.847 145.424 161.839 146.528V140.192H165.439V158H161.839V156.296C160.831 157.56 159.559 158.192 158.023 158.192ZM155.767 151.568C155.767 152.608 156.079 153.464 156.703 154.136C157.327 154.792 158.055 155.12 158.887 155.12C159.719 155.12 160.423 154.792 160.999 154.136C161.591 153.464 161.887 152.608 161.887 151.568C161.887 150.512 161.591 149.64 160.999 148.952C160.423 148.248 159.711 147.896 158.863 147.896C158.015 147.896 157.287 148.248 156.679 148.952C156.071 149.656 155.767 150.528 155.767 151.568ZM182.84 144.464V158H179.096V144.464H174.344V141.224H187.592V144.464H182.84ZM201.261 156.128C199.805 157.504 198.093 158.192 196.125 158.192C194.173 158.192 192.557 157.592 191.277 156.392C189.997 155.176 189.357 153.552 189.357 151.52C189.357 149.488 190.005 147.872 191.301 146.672C192.613 145.472 194.157 144.872 195.933 144.872C197.709 144.872 199.213 145.408 200.445 146.48C201.693 147.552 202.317 149.024 202.317 150.896V152.816H192.909C193.021 153.52 193.389 154.096 194.013 154.544C194.637 154.992 195.341 155.216 196.125 155.216C197.389 155.216 198.429 154.792 199.245 153.944L201.261 156.128ZM198.669 150.248C198.589 149.48 198.301 148.888 197.805 148.472C197.309 148.056 196.701 147.848 195.981 147.848C195.277 147.848 194.629 148.064 194.037 148.496C193.445 148.928 193.101 149.512 193.005 150.248H198.669ZM215.981 158H212.597V156.44C211.669 157.608 210.517 158.192 209.141 158.192C207.781 158.192 206.637 157.8 205.709 157.016C204.781 156.216 204.317 155.16 204.317 153.848C204.317 152.52 204.797 151.528 205.757 150.872C206.717 150.216 208.029 149.888 209.693 149.888H212.381V149.816C212.381 148.44 211.653 147.752 210.197 147.752C209.573 147.752 208.909 147.88 208.205 148.136C207.517 148.376 206.933 148.68 206.453 149.048L204.845 146.72C206.541 145.488 208.477 144.872 210.653 144.872C212.221 144.872 213.501 145.264 214.493 146.048C215.485 146.832 215.981 148.072 215.981 149.768V158ZM212.357 153.08V152.456H210.101C208.661 152.456 207.941 152.904 207.941 153.8C207.941 154.264 208.109 154.624 208.445 154.88C208.797 155.12 209.293 155.24 209.933 155.24C210.573 155.24 211.133 155.048 211.613 154.664C212.109 154.264 212.357 153.736 212.357 153.08ZM225.555 155C226.755 155 227.835 154.4 228.795 153.2L230.931 155.6C229.267 157.328 227.467 158.192 225.531 158.192C223.595 158.192 221.955 157.584 220.611 156.368C219.283 155.136 218.619 153.536 218.619 151.568C218.619 149.584 219.291 147.976 220.635 146.744C221.995 145.496 223.603 144.872 225.459 144.872C226.387 144.872 227.323 145.064 228.267 145.448C229.227 145.832 230.067 146.4 230.787 147.152L228.915 149.6C228.499 149.104 227.987 148.72 227.379 148.448C226.787 148.176 226.195 148.04 225.603 148.04C224.659 148.04 223.843 148.352 223.155 148.976C222.483 149.584 222.147 150.44 222.147 151.544C222.147 152.632 222.483 153.48 223.155 154.088C223.843 154.696 224.643 155 225.555 155ZM237.032 151.04V158H233.432V140.192H237.032V146.528C238.12 145.424 239.336 144.872 240.68 144.872C242.04 144.872 243.184 145.352 244.112 146.312C245.04 147.272 245.504 148.552 245.504 150.152V158H241.904V150.944C241.904 148.96 241.176 147.968 239.72 147.968C239 147.968 238.368 148.232 237.824 148.76C237.296 149.272 237.032 150.032 237.032 151.04ZM260.044 156.128C258.588 157.504 256.876 158.192 254.908 158.192C252.956 158.192 251.34 157.592 250.06 156.392C248.78 155.176 248.14 153.552 248.14 151.52C248.14 149.488 248.788 147.872 250.084 146.672C251.396 145.472 252.94 144.872 254.716 144.872C256.492 144.872 257.996 145.408 259.228 146.48C260.476 147.552 261.1 149.024 261.1 150.896V152.816H251.692C251.804 153.52 252.172 154.096 252.796 154.544C253.42 154.992 254.124 155.216 254.908 155.216C256.172 155.216 257.212 154.792 258.028 153.944L260.044 156.128ZM257.452 150.248C257.372 149.48 257.084 148.888 256.588 148.472C256.092 148.056 255.484 147.848 254.764 147.848C254.06 147.848 253.412 148.064 252.82 148.496C252.228 148.928 251.884 149.512 251.788 150.248H257.452ZM270.588 148.256C269.516 148.256 268.716 148.64 268.188 149.408C267.66 150.16 267.396 151.16 267.396 152.408V158H263.796V145.088H267.396V146.792C267.86 146.264 268.436 145.816 269.124 145.448C269.828 145.08 270.54 144.888 271.26 144.872L271.284 148.256H270.588Z" fill="#252B42"/>
<rect x="59" y="185" width="50" height="2" fill="#E74040"/>
<path d="M64.054 213.726V222H62.402V213.726H59.434V212.214H67.022V213.726H64.054ZM70.2829 217.968V222H68.7149V211.626H70.2829V215.91C70.5069 215.453 70.8429 215.093 71.2909 214.832C71.7482 214.571 72.2382 214.44 72.7609 214.44C73.6009 214.44 74.2775 214.697 74.7909 215.21C75.3135 215.723 75.5749 216.465 75.5749 217.436V222H74.0069V217.912C74.0069 216.54 73.4375 215.854 72.2989 215.854C71.7575 215.854 71.2862 216.036 70.8849 216.4C70.4835 216.755 70.2829 217.277 70.2829 217.968ZM84.8956 218.962H79.0576C79.095 219.503 79.3423 219.942 79.7996 220.278C80.257 220.605 80.7796 220.768 81.3676 220.768C82.301 220.768 83.0103 220.474 83.4956 219.886L84.3916 220.866C83.589 221.697 82.5436 222.112 81.2556 222.112C80.2103 222.112 79.319 221.767 78.5816 221.076C77.8536 220.376 77.4896 219.443 77.4896 218.276C77.4896 217.1 77.863 216.167 78.6096 215.476C79.3563 214.785 80.2336 214.44 81.2416 214.44C82.259 214.44 83.1223 214.748 83.8316 215.364C84.541 215.971 84.8956 216.811 84.8956 217.884V218.962ZM79.0576 217.73H83.3276C83.3276 217.105 83.1316 216.624 82.7396 216.288C82.3476 215.952 81.8623 215.784 81.2836 215.784C80.7143 215.784 80.201 215.961 79.7436 216.316C79.2863 216.661 79.0576 217.133 79.0576 217.73ZM97.7497 214.552V221.048C97.7497 222.364 97.3904 223.349 96.6717 224.002C95.9624 224.665 95.0477 224.996 93.9277 224.996C92.8077 224.996 91.7951 224.646 90.8897 223.946L91.6317 222.756C92.3597 223.307 93.0924 223.582 93.8297 223.582C94.5764 223.582 95.1644 223.391 95.5937 223.008C96.0324 222.625 96.2517 222.014 96.2517 221.174V220.222C96.0184 220.661 95.6824 221.011 95.2437 221.272C94.8144 221.533 94.3291 221.664 93.7877 221.664C92.7984 221.664 91.9864 221.319 91.3517 220.628C90.7171 219.937 90.3997 219.079 90.3997 218.052C90.3997 217.025 90.7171 216.167 91.3517 215.476C91.9864 214.785 92.7937 214.44 93.7737 214.44C94.7631 214.44 95.5657 214.846 96.1817 215.658V214.552H97.7497ZM91.9397 217.996C91.9397 218.603 92.1264 219.13 92.4997 219.578C92.8824 220.017 93.3911 220.236 94.0257 220.236C94.6697 220.236 95.1877 220.021 95.5797 219.592C95.9811 219.163 96.1817 218.631 96.1817 217.996C96.1817 217.352 95.9811 216.811 95.5797 216.372C95.1784 215.924 94.6604 215.7 94.0257 215.7C93.3911 215.7 92.8824 215.929 92.4997 216.386C92.1264 216.843 91.9397 217.38 91.9397 217.996ZM104.128 216.022C103.353 216.022 102.77 216.274 102.378 216.778C101.986 217.282 101.79 217.959 101.79 218.808V222H100.222V214.552H101.79V216.05C102.042 215.583 102.383 215.201 102.812 214.902C103.251 214.603 103.713 214.449 104.198 214.44L104.212 216.022C104.184 216.022 104.156 216.022 104.128 216.022ZM111.952 222H110.524V221.006C109.908 221.743 109.082 222.112 108.046 222.112C107.271 222.112 106.627 221.893 106.114 221.454C105.61 221.015 105.358 220.432 105.358 219.704C105.358 218.967 105.629 218.416 106.17 218.052C106.711 217.688 107.444 217.506 108.368 217.506H110.398V217.226C110.398 216.237 109.847 215.742 108.746 215.742C108.055 215.742 107.337 215.994 106.59 216.498L105.89 215.518C106.795 214.799 107.822 214.44 108.97 214.44C109.847 214.44 110.561 214.664 111.112 215.112C111.672 215.551 111.952 216.246 111.952 217.198V222ZM110.384 219.228V218.598H108.62C107.491 218.598 106.926 218.953 106.926 219.662C106.926 220.026 107.066 220.306 107.346 220.502C107.626 220.689 108.013 220.782 108.508 220.782C109.012 220.782 109.451 220.642 109.824 220.362C110.197 220.082 110.384 219.704 110.384 219.228ZM117.373 222.112C116.43 222.112 115.609 221.757 114.909 221.048C114.209 220.339 113.859 219.405 113.859 218.248C113.859 217.091 114.218 216.167 114.937 215.476C115.655 214.785 116.509 214.44 117.499 214.44C118.497 214.44 119.3 214.86 119.907 215.7V211.612H121.475V222H119.907V220.88C119.328 221.701 118.483 222.112 117.373 222.112ZM115.427 218.318C115.427 219.027 115.655 219.606 116.113 220.054C116.57 220.502 117.107 220.726 117.723 220.726C118.339 220.726 118.861 220.502 119.291 220.054C119.72 219.597 119.935 219.013 119.935 218.304C119.935 217.595 119.72 217.002 119.291 216.526C118.861 216.05 118.334 215.812 117.709 215.812C117.083 215.812 116.547 216.05 116.099 216.526C115.651 217.002 115.427 217.599 115.427 218.318ZM129.149 218.584V214.552H130.717V222H129.149V220.642C128.897 221.099 128.547 221.459 128.099 221.72C127.66 221.981 127.184 222.112 126.671 222.112C125.831 222.112 125.15 221.855 124.627 221.342C124.114 220.829 123.857 220.087 123.857 219.116V214.552H125.425V218.64C125.425 220.012 125.994 220.698 127.133 220.698C127.674 220.698 128.146 220.521 128.547 220.166C128.948 219.802 129.149 219.275 129.149 218.584ZM139.226 222H137.798V221.006C137.182 221.743 136.356 222.112 135.32 222.112C134.545 222.112 133.901 221.893 133.388 221.454C132.884 221.015 132.632 220.432 132.632 219.704C132.632 218.967 132.902 218.416 133.444 218.052C133.985 217.688 134.718 217.506 135.642 217.506H137.672V217.226C137.672 216.237 137.121 215.742 136.02 215.742C135.329 215.742 134.61 215.994 133.864 216.498L133.164 215.518C134.069 214.799 135.096 214.44 136.244 214.44C137.121 214.44 137.835 214.664 138.386 215.112C138.946 215.551 139.226 216.246 139.226 217.198V222ZM137.658 219.228V218.598H135.894C134.764 218.598 134.2 218.953 134.2 219.662C134.2 220.026 134.34 220.306 134.62 220.502C134.9 220.689 135.287 220.782 135.782 220.782C136.286 220.782 136.724 220.642 137.098 220.362C137.471 220.082 137.658 219.704 137.658 219.228ZM143.177 222H141.609V211.612H143.177V222ZM155.726 222H154.298V221.006C153.682 221.743 152.856 222.112 151.82 222.112C151.046 222.112 150.402 221.893 149.888 221.454C149.384 221.015 149.132 220.432 149.132 219.704C149.132 218.967 149.403 218.416 149.944 218.052C150.486 217.688 151.218 217.506 152.142 217.506H154.172V217.226C154.172 216.237 153.622 215.742 152.52 215.742C151.83 215.742 151.111 215.994 150.364 216.498L149.664 215.518C150.57 214.799 151.596 214.44 152.744 214.44C153.622 214.44 154.336 214.664 154.886 215.112C155.446 215.551 155.726 216.246 155.726 217.198V222ZM154.158 219.228V218.598H152.394C151.265 218.598 150.7 218.953 150.7 219.662C150.7 220.026 150.84 220.306 151.12 220.502C151.4 220.689 151.788 220.782 152.282 220.782C152.786 220.782 153.225 220.642 153.598 220.362C153.972 220.082 154.158 219.704 154.158 219.228ZM161.413 222.112C160.377 222.112 159.486 221.762 158.739 221.062C157.992 220.353 157.619 219.429 157.619 218.29C157.619 217.151 158.006 216.227 158.781 215.518C159.565 214.799 160.517 214.44 161.637 214.44C162.757 214.44 163.704 214.827 164.479 215.602L163.555 216.736C162.911 216.176 162.262 215.896 161.609 215.896C160.956 215.896 160.386 216.115 159.901 216.554C159.425 216.983 159.187 217.543 159.187 218.234C159.187 218.915 159.425 219.494 159.901 219.97C160.377 220.446 160.96 220.684 161.651 220.684C162.351 220.684 163.009 220.367 163.625 219.732L164.549 220.74C163.644 221.655 162.598 222.112 161.413 222.112ZM169.679 222.112C168.643 222.112 167.752 221.762 167.005 221.062C166.259 220.353 165.885 219.429 165.885 218.29C165.885 217.151 166.273 216.227 167.047 215.518C167.831 214.799 168.783 214.44 169.903 214.44C171.023 214.44 171.971 214.827 172.745 215.602L171.821 216.736C171.177 216.176 170.529 215.896 169.875 215.896C169.222 215.896 168.653 216.115 168.167 216.554C167.691 216.983 167.453 217.543 167.453 218.234C167.453 218.915 167.691 219.494 168.167 219.97C168.643 220.446 169.227 220.684 169.917 220.684C170.617 220.684 171.275 220.367 171.891 219.732L172.815 220.74C171.91 221.655 170.865 222.112 169.679 222.112ZM179.85 218.584V214.552H181.418V222H179.85V220.642C179.598 221.099 179.248 221.459 178.8 221.72C178.361 221.981 177.885 222.112 177.372 222.112C176.532 222.112 175.85 221.855 175.328 221.342C174.814 220.829 174.558 220.087 174.558 219.116V214.552H176.126V218.64C176.126 220.012 176.695 220.698 177.834 220.698C178.375 220.698 178.846 220.521 179.248 220.166C179.649 219.802 179.85 219.275 179.85 218.584ZM185.461 217.968V222H183.893V214.552H185.461V215.91C185.685 215.453 186.021 215.093 186.469 214.832C186.926 214.571 187.416 214.44 187.939 214.44C189.115 214.44 189.913 214.925 190.333 215.896C191.07 214.925 191.989 214.44 193.091 214.44C193.931 214.44 194.607 214.697 195.121 215.21C195.643 215.723 195.905 216.465 195.905 217.436V222H194.337V217.912C194.337 216.54 193.767 215.854 192.629 215.854C192.097 215.854 191.63 216.027 191.229 216.372C190.837 216.708 190.631 217.203 190.613 217.856V222H189.045V217.912C189.045 217.203 188.919 216.685 188.667 216.358C188.415 216.022 188.018 215.854 187.477 215.854C186.935 215.854 186.464 216.036 186.063 216.4C185.661 216.755 185.461 217.277 185.461 217.968ZM203.492 218.584V214.552H205.06V222H203.492V220.642C203.24 221.099 202.89 221.459 202.442 221.72C202.003 221.981 201.527 222.112 201.014 222.112C200.174 222.112 199.493 221.855 198.97 221.342C198.457 220.829 198.2 220.087 198.2 219.116V214.552H199.768V218.64C199.768 220.012 200.337 220.698 201.476 220.698C202.017 220.698 202.489 220.521 202.89 220.166C203.291 219.802 203.492 219.275 203.492 218.584ZM209.103 222H207.535V211.612H209.103V222ZM217.611 222H216.183V221.006C215.567 221.743 214.741 222.112 213.705 222.112C212.93 222.112 212.286 221.893 211.773 221.454C211.269 221.015 211.017 220.432 211.017 219.704C211.017 218.967 211.287 218.416 211.829 218.052C212.37 217.688 213.103 217.506 214.027 217.506H216.057V217.226C216.057 216.237 215.506 215.742 214.405 215.742C213.714 215.742 212.995 215.994 212.249 216.498L211.549 215.518C212.454 214.799 213.481 214.44 214.629 214.44C215.506 214.44 216.22 214.664 216.771 215.112C217.331 215.551 217.611 216.246 217.611 217.198V222ZM216.043 219.228V218.598H214.279C213.149 218.598 212.585 218.953 212.585 219.662C212.585 220.026 212.725 220.306 213.005 220.502C213.285 220.689 213.672 220.782 214.167 220.782C214.671 220.782 215.109 220.642 215.483 220.362C215.856 220.082 216.043 219.704 216.043 219.228ZM221.843 215.812V219.592C221.843 219.947 221.937 220.231 222.123 220.446C222.31 220.651 222.571 220.754 222.907 220.754C223.243 220.754 223.565 220.591 223.873 220.264L224.517 221.37C223.967 221.865 223.355 222.112 222.683 222.112C222.021 222.112 221.451 221.883 220.975 221.426C220.509 220.959 220.275 220.334 220.275 219.55V215.812H219.337V214.552H220.275V212.214H221.843V214.552H223.803V215.812H221.843ZM227.531 222H225.963V214.552H227.531V222ZM226.061 213.068C225.865 212.872 225.767 212.639 225.767 212.368C225.767 212.097 225.865 211.864 226.061 211.668C226.257 211.472 226.49 211.374 226.761 211.374C227.032 211.374 227.265 211.472 227.461 211.668C227.657 211.864 227.755 212.097 227.755 212.368C227.755 212.639 227.657 212.872 227.461 213.068C227.265 213.264 227.032 213.362 226.761 213.362C226.49 213.362 226.257 213.264 226.061 213.068ZM231.741 220.04C232.189 220.488 232.753 220.712 233.435 220.712C234.116 220.712 234.676 220.488 235.115 220.04C235.563 219.583 235.787 218.995 235.787 218.276C235.787 217.557 235.563 216.974 235.115 216.526C234.676 216.069 234.116 215.84 233.435 215.84C232.753 215.84 232.189 216.069 231.741 216.526C231.302 216.974 231.083 217.557 231.083 218.276C231.083 218.995 231.302 219.583 231.741 220.04ZM236.235 221.006C235.488 221.743 234.555 222.112 233.435 222.112C232.315 222.112 231.381 221.743 230.635 221.006C229.888 220.259 229.515 219.349 229.515 218.276C229.515 217.203 229.888 216.297 230.635 215.56C231.381 214.813 232.315 214.44 233.435 214.44C234.555 214.44 235.488 214.813 236.235 215.56C236.981 216.297 237.355 217.203 237.355 218.276C237.355 219.349 236.981 220.259 236.235 221.006ZM240.906 217.968V222H239.338V214.552H240.906V215.91C241.158 215.453 241.503 215.093 241.942 214.832C242.39 214.571 242.87 214.44 243.384 214.44C244.224 214.44 244.9 214.697 245.414 215.21C245.936 215.723 246.198 216.465 246.198 217.436V222H244.63V217.912C244.63 216.54 244.06 215.854 242.922 215.854C242.38 215.854 241.909 216.036 241.508 216.4C241.106 216.755 240.906 217.277 240.906 217.968ZM254.366 220.04C254.814 220.488 255.379 220.712 256.06 220.712C256.741 220.712 257.301 220.488 257.74 220.04C258.188 219.583 258.412 218.995 258.412 218.276C258.412 217.557 258.188 216.974 257.74 216.526C257.301 216.069 256.741 215.84 256.06 215.84C255.379 215.84 254.814 216.069 254.366 216.526C253.927 216.974 253.708 217.557 253.708 218.276C253.708 218.995 253.927 219.583 254.366 220.04ZM258.86 221.006C258.113 221.743 257.18 222.112 256.06 222.112C254.94 222.112 254.007 221.743 253.26 221.006C252.513 220.259 252.14 219.349 252.14 218.276C252.14 217.203 252.513 216.297 253.26 215.56C254.007 214.813 254.94 214.44 256.06 214.44C257.18 214.44 258.113 214.813 258.86 215.56C259.607 216.297 259.98 217.203 259.98 218.276C259.98 219.349 259.607 220.259 258.86 221.006ZM263.786 213.936V214.552H265.746V215.812H263.786V222H262.218V215.812H261.28V214.552H262.218V213.978C262.218 213.194 262.451 212.573 262.918 212.116C263.394 211.649 263.963 211.416 264.626 211.416C265.298 211.416 265.909 211.663 266.46 212.158L265.816 213.264C265.508 212.937 265.186 212.774 264.85 212.774C264.514 212.774 264.252 212.881 264.066 213.096C263.879 213.301 263.786 213.581 263.786 213.936ZM61.702 242H60.134V234.552H61.702V242ZM60.232 233.068C60.036 232.872 59.938 232.639 59.938 232.368C59.938 232.097 60.036 231.864 60.232 231.668C60.428 231.472 60.6613 231.374 60.932 231.374C61.2027 231.374 61.436 231.472 61.632 231.668C61.828 231.864 61.926 232.097 61.926 232.368C61.926 232.639 61.828 232.872 61.632 233.068C61.436 233.264 61.2027 233.362 60.932 233.362C60.6613 233.362 60.428 233.264 60.232 233.068ZM65.7438 237.968V242H64.1758V234.552H65.7438V235.91C65.9958 235.453 66.3411 235.093 66.7798 234.832C67.2278 234.571 67.7085 234.44 68.2218 234.44C69.0618 234.44 69.7385 234.697 70.2518 235.21C70.7745 235.723 71.0358 236.465 71.0358 237.436V242H69.4678V237.912C69.4678 236.54 68.8985 235.854 67.7598 235.854C67.2185 235.854 66.7471 236.036 66.3458 236.4C65.9445 236.755 65.7438 237.277 65.7438 237.968ZM75.2902 233.936V234.552H77.2502V235.812H75.2902V242H73.7222V235.812H72.7842V234.552H73.7222V233.978C73.7222 233.194 73.9556 232.573 74.4222 232.116C74.8982 231.649 75.4676 231.416 76.1302 231.416C76.8022 231.416 77.4136 231.663 77.9642 232.158L77.3202 233.264C77.0122 232.937 76.6902 232.774 76.3542 232.774C76.0182 232.774 75.7569 232.881 75.5702 233.096C75.3836 233.301 75.2902 233.581 75.2902 233.936ZM80.5169 240.04C80.9649 240.488 81.5295 240.712 82.2109 240.712C82.8922 240.712 83.4522 240.488 83.8909 240.04C84.3389 239.583 84.5629 238.995 84.5629 238.276C84.5629 237.557 84.3389 236.974 83.8909 236.526C83.4522 236.069 82.8922 235.84 82.2109 235.84C81.5295 235.84 80.9649 236.069 80.5169 236.526C80.0782 236.974 79.8589 237.557 79.8589 238.276C79.8589 238.995 80.0782 239.583 80.5169 240.04ZM85.0109 241.006C84.2642 241.743 83.3309 242.112 82.2109 242.112C81.0909 242.112 80.1575 241.743 79.4109 241.006C78.6642 240.259 78.2909 239.349 78.2909 238.276C78.2909 237.203 78.6642 236.297 79.4109 235.56C80.1575 234.813 81.0909 234.44 82.2109 234.44C83.3309 234.44 84.2642 234.813 85.0109 235.56C85.7575 236.297 86.1309 237.203 86.1309 238.276C86.1309 239.349 85.7575 240.259 85.0109 241.006ZM92.0197 236.022C91.245 236.022 90.6617 236.274 90.2697 236.778C89.8777 237.282 89.6817 237.959 89.6817 238.808V242H88.1137V234.552H89.6817V236.05C89.9337 235.583 90.2744 235.201 90.7037 234.902C91.1424 234.603 91.6044 234.449 92.0897 234.44L92.1037 236.022C92.0757 236.022 92.0477 236.022 92.0197 236.022ZM95.4461 237.968V242H93.8781V234.552H95.4461V235.91C95.6701 235.453 96.0061 235.093 96.4541 234.832C96.9115 234.571 97.4015 234.44 97.9241 234.44C99.1001 234.44 99.8981 234.925 100.318 235.896C101.055 234.925 101.975 234.44 103.076 234.44C103.916 234.44 104.593 234.697 105.106 235.21C105.629 235.723 105.89 236.465 105.89 237.436V242H104.322V237.912C104.322 236.54 103.753 235.854 102.614 235.854C102.082 235.854 101.615 236.027 101.214 236.372C100.822 236.708 100.617 237.203 100.598 237.856V242H99.0301V237.912C99.0301 237.203 98.9041 236.685 98.6521 236.358C98.4001 236.022 98.0035 235.854 97.4621 235.854C96.9208 235.854 96.4495 236.036 96.0481 236.4C95.6468 236.755 95.4461 237.277 95.4461 237.968ZM114.304 242H112.876V241.006C112.26 241.743 111.434 242.112 110.398 242.112C109.623 242.112 108.979 241.893 108.466 241.454C107.962 241.015 107.71 240.432 107.71 239.704C107.71 238.967 107.98 238.416 108.522 238.052C109.063 237.688 109.796 237.506 110.72 237.506H112.75V237.226C112.75 236.237 112.199 235.742 111.098 235.742C110.407 235.742 109.688 235.994 108.942 236.498L108.242 235.518C109.147 234.799 110.174 234.44 111.322 234.44C112.199 234.44 112.913 234.664 113.464 235.112C114.024 235.551 114.304 236.246 114.304 237.198V242ZM112.736 239.228V238.598H110.972C109.842 238.598 109.278 238.953 109.278 239.662C109.278 240.026 109.418 240.306 109.698 240.502C109.978 240.689 110.365 240.782 110.86 240.782C111.364 240.782 111.802 240.642 112.176 240.362C112.549 240.082 112.736 239.704 112.736 239.228ZM118.536 235.812V239.592C118.536 239.947 118.63 240.231 118.816 240.446C119.003 240.651 119.264 240.754 119.6 240.754C119.936 240.754 120.258 240.591 120.566 240.264L121.21 241.37C120.66 241.865 120.048 242.112 119.376 242.112C118.714 242.112 118.144 241.883 117.668 241.426C117.202 240.959 116.968 240.334 116.968 239.55V235.812H116.03V234.552H116.968V232.214H118.536V234.552H120.496V235.812H118.536ZM124.224 242H122.656V234.552H124.224V242ZM122.754 233.068C122.558 232.872 122.46 232.639 122.46 232.368C122.46 232.097 122.558 231.864 122.754 231.668C122.95 231.472 123.183 231.374 123.454 231.374C123.725 231.374 123.958 231.472 124.154 231.668C124.35 231.864 124.448 232.097 124.448 232.368C124.448 232.639 124.35 232.872 124.154 233.068C123.958 233.264 123.725 233.362 123.454 233.362C123.183 233.362 122.95 233.264 122.754 233.068ZM128.434 240.04C128.882 240.488 129.446 240.712 130.128 240.712C130.809 240.712 131.369 240.488 131.808 240.04C132.256 239.583 132.48 238.995 132.48 238.276C132.48 237.557 132.256 236.974 131.808 236.526C131.369 236.069 130.809 235.84 130.128 235.84C129.446 235.84 128.882 236.069 128.434 236.526C127.995 236.974 127.776 237.557 127.776 238.276C127.776 238.995 127.995 239.583 128.434 240.04ZM132.928 241.006C132.181 241.743 131.248 242.112 130.128 242.112C129.008 242.112 128.074 241.743 127.328 241.006C126.581 240.259 126.208 239.349 126.208 238.276C126.208 237.203 126.581 236.297 127.328 235.56C128.074 234.813 129.008 234.44 130.128 234.44C131.248 234.44 132.181 234.813 132.928 235.56C133.674 236.297 134.048 237.203 134.048 238.276C134.048 239.349 133.674 240.259 132.928 241.006ZM137.598 237.968V242H136.03V234.552H137.598V235.91C137.85 235.453 138.196 235.093 138.634 234.832C139.082 234.571 139.563 234.44 140.076 234.44C140.916 234.44 141.593 234.697 142.106 235.21C142.629 235.723 142.89 236.465 142.89 237.436V242H141.322V237.912C141.322 236.54 140.753 235.854 139.614 235.854C139.073 235.854 138.602 236.036 138.2 236.4C137.799 236.755 137.598 237.277 137.598 237.968ZM155.357 242H153.929V241.006C153.313 241.743 152.487 242.112 151.451 242.112C150.676 242.112 150.032 241.893 149.519 241.454C149.015 241.015 148.763 240.432 148.763 239.704C148.763 238.967 149.034 238.416 149.575 238.052C150.116 237.688 150.849 237.506 151.773 237.506H153.803V237.226C153.803 236.237 153.252 235.742 152.151 235.742C151.46 235.742 150.742 235.994 149.995 236.498L149.295 235.518C150.2 234.799 151.227 234.44 152.375 234.44C153.252 234.44 153.966 234.664 154.517 235.112C155.077 235.551 155.357 236.246 155.357 237.198V242ZM153.789 239.228V238.598H152.025C150.896 238.598 150.331 238.953 150.331 239.662C150.331 240.026 150.471 240.306 150.751 240.502C151.031 240.689 151.418 240.782 151.913 240.782C152.417 240.782 152.856 240.642 153.229 240.362C153.602 240.082 153.789 239.704 153.789 239.228ZM161.73 234.44C162.729 234.44 163.583 234.785 164.292 235.476C165.001 236.167 165.356 237.086 165.356 238.234C165.356 239.382 165.001 240.315 164.292 241.034C163.592 241.753 162.771 242.112 161.828 242.112C160.895 242.112 160.055 241.701 159.308 240.88V242H157.74V231.612H159.308V235.854C159.924 234.911 160.731 234.44 161.73 234.44ZM159.28 238.29C159.28 238.999 159.495 239.583 159.924 240.04C160.353 240.488 160.876 240.712 161.492 240.712C162.108 240.712 162.645 240.488 163.102 240.04C163.559 239.592 163.788 239.013 163.788 238.304C163.788 237.585 163.564 236.993 163.116 236.526C162.668 236.05 162.131 235.812 161.506 235.812C160.881 235.812 160.353 236.05 159.924 236.526C159.495 236.993 159.28 237.581 159.28 238.29ZM169.082 240.04C169.53 240.488 170.095 240.712 170.776 240.712C171.457 240.712 172.017 240.488 172.456 240.04C172.904 239.583 173.128 238.995 173.128 238.276C173.128 237.557 172.904 236.974 172.456 236.526C172.017 236.069 171.457 235.84 170.776 235.84C170.095 235.84 169.53 236.069 169.082 236.526C168.643 236.974 168.424 237.557 168.424 238.276C168.424 238.995 168.643 239.583 169.082 240.04ZM173.576 241.006C172.829 241.743 171.896 242.112 170.776 242.112C169.656 242.112 168.723 241.743 167.976 241.006C167.229 240.259 166.856 239.349 166.856 238.276C166.856 237.203 167.229 236.297 167.976 235.56C168.723 234.813 169.656 234.44 170.776 234.44C171.896 234.44 172.829 234.813 173.576 235.56C174.323 236.297 174.696 237.203 174.696 238.276C174.696 239.349 174.323 240.259 173.576 241.006ZM181.887 238.584V234.552H183.455V242H181.887V240.642C181.635 241.099 181.285 241.459 180.837 241.72C180.398 241.981 179.922 242.112 179.409 242.112C178.569 242.112 177.888 241.855 177.365 241.342C176.852 240.829 176.595 240.087 176.595 239.116V234.552H178.163V238.64C178.163 240.012 178.732 240.698 179.871 240.698C180.412 240.698 180.884 240.521 181.285 240.166C181.686 239.802 181.887 239.275 181.887 238.584ZM187.862 235.812V239.592C187.862 239.947 187.955 240.231 188.142 240.446C188.328 240.651 188.59 240.754 188.926 240.754C189.262 240.754 189.584 240.591 189.892 240.264L190.536 241.37C189.985 241.865 189.374 242.112 188.702 242.112C188.039 242.112 187.47 241.883 186.994 241.426C186.527 240.959 186.294 240.334 186.294 239.55V235.812H185.356V234.552H186.294V232.214H187.862V234.552H189.822V235.812H187.862ZM202.057 242H200.629V241.006C200.013 241.743 199.187 242.112 198.151 242.112C197.376 242.112 196.732 241.893 196.219 241.454C195.715 241.015 195.463 240.432 195.463 239.704C195.463 238.967 195.734 238.416 196.275 238.052C196.816 237.688 197.549 237.506 198.473 237.506H200.503V237.226C200.503 236.237 199.952 235.742 198.851 235.742C198.16 235.742 197.442 235.994 196.695 236.498L195.995 235.518C196.9 234.799 197.927 234.44 199.075 234.44C199.952 234.44 200.666 234.664 201.217 235.112C201.777 235.551 202.057 236.246 202.057 237.198V242ZM200.489 239.228V238.598H198.725C197.596 238.598 197.031 238.953 197.031 239.662C197.031 240.026 197.171 240.306 197.451 240.502C197.731 240.689 198.118 240.782 198.613 240.782C199.117 240.782 199.556 240.642 199.929 240.362C200.302 240.082 200.489 239.704 200.489 239.228ZM206.29 235.812V239.592C206.29 239.947 206.383 240.231 206.57 240.446C206.756 240.651 207.018 240.754 207.354 240.754C207.69 240.754 208.012 240.591 208.32 240.264L208.964 241.37C208.413 241.865 207.802 242.112 207.13 242.112C206.467 242.112 205.898 241.883 205.422 241.426C204.955 240.959 204.722 240.334 204.722 239.55V235.812H203.784V234.552H204.722V232.214H206.29V234.552H208.25V235.812H206.29ZM212.091 240.04C212.539 240.488 213.103 240.712 213.785 240.712C214.466 240.712 215.026 240.488 215.465 240.04C215.913 239.583 216.137 238.995 216.137 238.276C216.137 237.557 215.913 236.974 215.465 236.526C215.026 236.069 214.466 235.84 213.785 235.84C213.103 235.84 212.539 236.069 212.091 236.526C211.652 236.974 211.433 237.557 211.433 238.276C211.433 238.995 211.652 239.583 212.091 240.04ZM216.585 241.006C215.838 241.743 214.905 242.112 213.785 242.112C212.665 242.112 211.731 241.743 210.985 241.006C210.238 240.259 209.865 239.349 209.865 238.276C209.865 237.203 210.238 236.297 210.985 235.56C211.731 234.813 212.665 234.44 213.785 234.44C214.905 234.44 215.838 234.813 216.585 235.56C217.331 236.297 217.705 237.203 217.705 238.276C217.705 239.349 217.331 240.259 216.585 241.006ZM221.256 237.968V242H219.688V234.552H221.256V235.91C221.48 235.453 221.816 235.093 222.264 234.832C222.721 234.571 223.211 234.44 223.734 234.44C224.91 234.44 225.708 234.925 226.128 235.896C226.865 234.925 227.784 234.44 228.886 234.44C229.726 234.44 230.402 234.697 230.916 235.21C231.438 235.723 231.7 236.465 231.7 237.436V242H230.132V237.912C230.132 236.54 229.562 235.854 228.424 235.854C227.892 235.854 227.425 236.027 227.024 236.372C226.632 236.708 226.426 237.203 226.408 237.856V242H224.84V237.912C224.84 237.203 224.714 236.685 224.462 236.358C224.21 236.022 223.813 235.854 223.272 235.854C222.73 235.854 222.259 236.036 221.858 236.4C221.456 236.755 221.256 237.277 221.256 237.968ZM235.647 242H234.079V234.552H235.647V242ZM234.177 233.068C233.981 232.872 233.883 232.639 233.883 232.368C233.883 232.097 233.981 231.864 234.177 231.668C234.373 231.472 234.606 231.374 234.877 231.374C235.148 231.374 235.381 231.472 235.577 231.668C235.773 231.864 235.871 232.097 235.871 232.368C235.871 232.639 235.773 232.872 235.577 233.068C235.381 233.264 235.148 233.362 234.877 233.362C234.606 233.362 234.373 233.264 234.177 233.068ZM241.425 242.112C240.389 242.112 239.497 241.762 238.751 241.062C238.004 240.353 237.631 239.429 237.631 238.29C237.631 237.151 238.018 236.227 238.793 235.518C239.577 234.799 240.529 234.44 241.649 234.44C242.769 234.44 243.716 234.827 244.491 235.602L243.567 236.736C242.923 236.176 242.274 235.896 241.621 235.896C240.967 235.896 240.398 236.115 239.913 236.554C239.437 236.983 239.199 237.543 239.199 238.234C239.199 238.915 239.437 239.494 239.913 239.97C240.389 240.446 240.972 240.684 241.663 240.684C242.363 240.684 243.021 240.367 243.637 239.732L244.561 240.74C243.655 241.655 242.61 242.112 241.425 242.112ZM256.463 242H255.035V241.006C254.419 241.743 253.593 242.112 252.557 242.112C251.782 242.112 251.138 241.893 250.625 241.454C250.121 241.015 249.869 240.432 249.869 239.704C249.869 238.967 250.14 238.416 250.681 238.052C251.222 237.688 251.955 237.506 252.879 237.506H254.909V237.226C254.909 236.237 254.358 235.742 253.257 235.742C252.566 235.742 251.848 235.994 251.101 236.498L250.401 235.518C251.306 234.799 252.333 234.44 253.481 234.44C254.358 234.44 255.072 234.664 255.623 235.112C256.183 235.551 256.463 236.246 256.463 237.198V242ZM254.895 239.228V238.598H253.131C252.002 238.598 251.437 238.953 251.437 239.662C251.437 240.026 251.577 240.306 251.857 240.502C252.137 240.689 252.524 240.782 253.019 240.782C253.523 240.782 253.962 240.642 254.335 240.362C254.708 240.082 254.895 239.704 254.895 239.228ZM260.414 237.968V242H258.846V234.552H260.414V235.91C260.666 235.453 261.011 235.093 261.45 234.832C261.898 234.571 262.378 234.44 262.892 234.44C263.732 234.44 264.408 234.697 264.922 235.21C265.444 235.723 265.706 236.465 265.706 237.436V242H264.138V237.912C264.138 236.54 263.568 235.854 262.43 235.854C261.888 235.854 261.417 236.036 261.016 236.4C260.614 236.755 260.414 237.277 260.414 237.968ZM271.134 242.112C270.192 242.112 269.37 241.757 268.67 241.048C267.97 240.339 267.62 239.405 267.62 238.248C267.62 237.091 267.98 236.167 268.698 235.476C269.417 234.785 270.271 234.44 271.26 234.44C272.259 234.44 273.062 234.86 273.668 235.7V231.612H275.236V242H273.668V240.88C273.09 241.701 272.245 242.112 271.134 242.112ZM269.188 238.318C269.188 239.027 269.417 239.606 269.874 240.054C270.332 240.502 270.868 240.726 271.484 240.726C272.1 240.726 272.623 240.502 273.052 240.054C273.482 239.597 273.696 239.013 273.696 238.304C273.696 237.595 273.482 237.002 273.052 236.526C272.623 236.05 272.096 235.812 271.47 235.812C270.845 235.812 270.308 236.05 269.86 236.526C269.412 237.002 269.188 237.599 269.188 238.318ZM65.44 259.774C65.44 260.483 65.1833 261.053 64.67 261.482C64.1567 261.902 63.4987 262.112 62.696 262.112C62.1547 262.112 61.59 262.014 61.002 261.818C60.4233 261.622 59.91 261.347 59.462 260.992L60.218 259.774C61.086 260.427 61.926 260.754 62.738 260.754C63.0927 260.754 63.3727 260.675 63.578 260.516C63.7833 260.348 63.886 260.138 63.886 259.886C63.886 259.513 63.3913 259.177 62.402 258.878C62.3273 258.85 62.2713 258.831 62.234 258.822C60.6847 258.402 59.91 257.702 59.91 256.722C59.91 256.031 60.176 255.481 60.708 255.07C61.2493 254.65 61.9493 254.44 62.808 254.44C63.6667 254.44 64.4787 254.692 65.244 255.196L64.656 256.358C64.0493 255.957 63.3913 255.756 62.682 255.756C62.3087 255.756 62.0053 255.826 61.772 255.966C61.5387 256.097 61.422 256.297 61.422 256.568C61.422 256.811 61.5433 256.988 61.786 257.1C61.954 257.184 62.1873 257.263 62.486 257.338C62.794 257.413 63.0647 257.487 63.298 257.562C63.5313 257.637 63.7553 257.721 63.97 257.814C64.194 257.907 64.432 258.038 64.684 258.206C65.188 258.542 65.44 259.065 65.44 259.774ZM68.984 257.968V262H67.416V254.552H68.984V255.91C69.208 255.453 69.544 255.093 69.992 254.832C70.4494 254.571 70.9394 254.44 71.462 254.44C72.638 254.44 73.436 254.925 73.856 255.896C74.5934 254.925 75.5127 254.44 76.614 254.44C77.454 254.44 78.1307 254.697 78.644 255.21C79.1667 255.723 79.428 256.465 79.428 257.436V262H77.86V257.912C77.86 256.54 77.2907 255.854 76.152 255.854C75.62 255.854 75.1534 256.027 74.752 256.372C74.36 256.708 74.1547 257.203 74.136 257.856V262H72.568V257.912C72.568 257.203 72.442 256.685 72.19 256.358C71.938 256.022 71.5414 255.854 71 255.854C70.4587 255.854 69.9874 256.036 69.586 256.4C69.1847 256.755 68.984 257.277 68.984 257.968ZM87.8414 262H86.4134V261.006C85.7974 261.743 84.9714 262.112 83.9354 262.112C83.1608 262.112 82.5168 261.893 82.0034 261.454C81.4994 261.015 81.2474 260.432 81.2474 259.704C81.2474 258.967 81.5181 258.416 82.0594 258.052C82.6008 257.688 83.3334 257.506 84.2574 257.506H86.2874V257.226C86.2874 256.237 85.7368 255.742 84.6354 255.742C83.9448 255.742 83.2261 255.994 82.4794 256.498L81.7794 255.518C82.6848 254.799 83.7114 254.44 84.8594 254.44C85.7368 254.44 86.4508 254.664 87.0014 255.112C87.5614 255.551 87.8414 256.246 87.8414 257.198V262ZM86.2734 259.228V258.598H84.5094C83.3801 258.598 82.8154 258.953 82.8154 259.662C82.8154 260.026 82.9554 260.306 83.2354 260.502C83.5154 260.689 83.9028 260.782 84.3974 260.782C84.9014 260.782 85.3401 260.642 85.7134 260.362C86.0868 260.082 86.2734 259.704 86.2734 259.228ZM91.7922 262H90.2242V251.612H91.7922V262ZM95.834 262H94.266V251.612H95.834V262ZM98.1818 258.556V257.086H102.83V258.556H98.1818ZM110.472 259.774C110.472 260.483 110.215 261.053 109.702 261.482C109.189 261.902 108.531 262.112 107.728 262.112C107.187 262.112 106.622 262.014 106.034 261.818C105.455 261.622 104.942 261.347 104.494 260.992L105.25 259.774C106.118 260.427 106.958 260.754 107.77 260.754C108.125 260.754 108.405 260.675 108.61 260.516C108.815 260.348 108.918 260.138 108.918 259.886C108.918 259.513 108.423 259.177 107.434 258.878C107.359 258.85 107.303 258.831 107.266 258.822C105.717 258.402 104.942 257.702 104.942 256.722C104.942 256.031 105.208 255.481 105.74 255.07C106.281 254.65 106.981 254.44 107.84 254.44C108.699 254.44 109.511 254.692 110.276 255.196L109.688 256.358C109.081 255.957 108.423 255.756 107.714 255.756C107.341 255.756 107.037 255.826 106.804 255.966C106.571 256.097 106.454 256.297 106.454 256.568C106.454 256.811 106.575 256.988 106.818 257.1C106.986 257.184 107.219 257.263 107.518 257.338C107.826 257.413 108.097 257.487 108.33 257.562C108.563 257.637 108.787 257.721 109.002 257.814C109.226 257.907 109.464 258.038 109.716 258.206C110.22 258.542 110.472 259.065 110.472 259.774ZM115.752 262.112C114.716 262.112 113.825 261.762 113.078 261.062C112.331 260.353 111.958 259.429 111.958 258.29C111.958 257.151 112.345 256.227 113.12 255.518C113.904 254.799 114.856 254.44 115.976 254.44C117.096 254.44 118.043 254.827 118.818 255.602L117.894 256.736C117.25 256.176 116.601 255.896 115.948 255.896C115.295 255.896 114.725 256.115 114.24 256.554C113.764 256.983 113.526 257.543 113.526 258.234C113.526 258.915 113.764 259.494 114.24 259.97C114.716 260.446 115.299 260.684 115.99 260.684C116.69 260.684 117.348 260.367 117.964 259.732L118.888 260.74C117.983 261.655 116.937 262.112 115.752 262.112ZM126.694 262H125.266V261.006C124.65 261.743 123.824 262.112 122.788 262.112C122.013 262.112 121.369 261.893 120.856 261.454C120.352 261.015 120.1 260.432 120.1 259.704C120.1 258.967 120.37 258.416 120.912 258.052C121.453 257.688 122.186 257.506 123.11 257.506H125.14V257.226C125.14 256.237 124.589 255.742 123.488 255.742C122.797 255.742 122.078 255.994 121.332 256.498L120.632 255.518C121.537 254.799 122.564 254.44 123.712 254.44C124.589 254.44 125.303 254.664 125.854 255.112C126.414 255.551 126.694 256.246 126.694 257.198V262ZM125.126 259.228V258.598H123.362C122.232 258.598 121.668 258.953 121.668 259.662C121.668 260.026 121.808 260.306 122.088 260.502C122.368 260.689 122.755 260.782 123.25 260.782C123.754 260.782 124.192 260.642 124.566 260.362C124.939 260.082 125.126 259.704 125.126 259.228ZM130.645 262H129.077V251.612H130.645V262ZM140.048 258.962H134.21C134.248 259.503 134.495 259.942 134.952 260.278C135.41 260.605 135.932 260.768 136.52 260.768C137.454 260.768 138.163 260.474 138.648 259.886L139.544 260.866C138.742 261.697 137.696 262.112 136.408 262.112C135.363 262.112 134.472 261.767 133.734 261.076C133.006 260.376 132.642 259.443 132.642 258.276C132.642 257.1 133.016 256.167 133.762 255.476C134.509 254.785 135.386 254.44 136.394 254.44C137.412 254.44 138.275 254.748 138.984 255.364C139.694 255.971 140.048 256.811 140.048 257.884V258.962ZM134.21 257.73H138.48C138.48 257.105 138.284 256.624 137.892 256.288C137.5 255.952 137.015 255.784 136.436 255.784C135.867 255.784 135.354 255.961 134.896 256.316C134.439 256.661 134.21 257.133 134.21 257.73ZM150.004 254.44C151.003 254.44 151.857 254.785 152.566 255.476C153.276 256.167 153.63 257.086 153.63 258.234C153.63 259.382 153.276 260.315 152.566 261.034C151.866 261.753 151.045 262.112 150.102 262.112C149.169 262.112 148.329 261.701 147.582 260.88V262H146.014V251.612H147.582V255.854C148.198 254.911 149.006 254.44 150.004 254.44ZM147.554 258.29C147.554 258.999 147.769 259.583 148.198 260.04C148.628 260.488 149.15 260.712 149.766 260.712C150.382 260.712 150.919 260.488 151.376 260.04C151.834 259.592 152.062 259.013 152.062 258.304C152.062 257.585 151.838 256.993 151.39 256.526C150.942 256.05 150.406 255.812 149.78 255.812C149.155 255.812 148.628 256.05 148.198 256.526C147.769 256.993 147.554 257.581 147.554 258.29ZM162.551 258.962H156.713C156.75 259.503 156.997 259.942 157.455 260.278C157.912 260.605 158.435 260.768 159.023 260.768C159.956 260.768 160.665 260.474 161.151 259.886L162.047 260.866C161.244 261.697 160.199 262.112 158.911 262.112C157.865 262.112 156.974 261.767 156.237 261.076C155.509 260.376 155.145 259.443 155.145 258.276C155.145 257.1 155.518 256.167 156.265 255.476C157.011 254.785 157.889 254.44 158.897 254.44C159.914 254.44 160.777 254.748 161.487 255.364C162.196 255.971 162.551 256.811 162.551 257.884V258.962ZM156.713 257.73H160.983C160.983 257.105 160.787 256.624 160.395 256.288C160.003 255.952 159.517 255.784 158.939 255.784C158.369 255.784 157.856 255.961 157.399 256.316C156.941 256.661 156.713 257.133 156.713 257.73ZM166.043 257.968V262H164.475V251.626H166.043V255.91C166.267 255.453 166.603 255.093 167.051 254.832C167.508 254.571 167.998 254.44 168.521 254.44C169.361 254.44 170.038 254.697 170.551 255.21C171.074 255.723 171.335 256.465 171.335 257.436V262H169.767V257.912C169.767 256.54 169.198 255.854 168.059 255.854C167.518 255.854 167.046 256.036 166.645 256.4C166.244 256.755 166.043 257.277 166.043 257.968ZM179.76 262H178.332V261.006C177.716 261.743 176.89 262.112 175.854 262.112C175.079 262.112 174.435 261.893 173.922 261.454C173.418 261.015 173.166 260.432 173.166 259.704C173.166 258.967 173.436 258.416 173.978 258.052C174.519 257.688 175.252 257.506 176.176 257.506H178.206V257.226C178.206 256.237 177.655 255.742 176.554 255.742C175.863 255.742 175.144 255.994 174.398 256.498L173.698 255.518C174.603 254.799 175.63 254.44 176.778 254.44C177.655 254.44 178.369 254.664 178.92 255.112C179.48 255.551 179.76 256.246 179.76 257.198V262ZM178.192 259.228V258.598H176.428C175.298 258.598 174.734 258.953 174.734 259.662C174.734 260.026 174.874 260.306 175.154 260.502C175.434 260.689 175.821 260.782 176.316 260.782C176.82 260.782 177.258 260.642 177.632 260.362C178.005 260.082 178.192 259.704 178.192 259.228ZM184.035 262L181.039 254.552H182.663L184.931 260.18L187.199 254.552H188.823L185.827 262H184.035ZM191.84 262H190.272V254.552H191.84V262ZM190.37 253.068C190.174 252.872 190.076 252.639 190.076 252.368C190.076 252.097 190.174 251.864 190.37 251.668C190.566 251.472 190.8 251.374 191.07 251.374C191.341 251.374 191.574 251.472 191.77 251.668C191.966 251.864 192.064 252.097 192.064 252.368C192.064 252.639 191.966 252.872 191.77 253.068C191.574 253.264 191.341 253.362 191.07 253.362C190.8 253.362 190.566 253.264 190.37 253.068ZM196.05 260.04C196.498 260.488 197.063 260.712 197.744 260.712C198.425 260.712 198.985 260.488 199.424 260.04C199.872 259.583 200.096 258.995 200.096 258.276C200.096 257.557 199.872 256.974 199.424 256.526C198.985 256.069 198.425 255.84 197.744 255.84C197.063 255.84 196.498 256.069 196.05 256.526C195.611 256.974 195.392 257.557 195.392 258.276C195.392 258.995 195.611 259.583 196.05 260.04ZM200.544 261.006C199.797 261.743 198.864 262.112 197.744 262.112C196.624 262.112 195.691 261.743 194.944 261.006C194.197 260.259 193.824 259.349 193.824 258.276C193.824 257.203 194.197 256.297 194.944 255.56C195.691 254.813 196.624 254.44 197.744 254.44C198.864 254.44 199.797 254.813 200.544 255.56C201.291 256.297 201.664 257.203 201.664 258.276C201.664 259.349 201.291 260.259 200.544 261.006ZM208.855 258.584V254.552H210.423V262H208.855V260.642C208.603 261.099 208.253 261.459 207.805 261.72C207.366 261.981 206.89 262.112 206.377 262.112C205.537 262.112 204.856 261.855 204.333 261.342C203.82 260.829 203.563 260.087 203.563 259.116V254.552H205.131V258.64C205.131 260.012 205.7 260.698 206.839 260.698C207.38 260.698 207.852 260.521 208.253 260.166C208.654 259.802 208.855 259.275 208.855 258.584ZM216.804 256.022C216.029 256.022 215.446 256.274 215.054 256.778C214.662 257.282 214.466 257.959 214.466 258.808V262H212.898V254.552H214.466V256.05C214.718 255.583 215.058 255.201 215.488 254.902C215.926 254.603 216.388 254.449 216.874 254.44L216.888 256.022C216.86 256.022 216.832 256.022 216.804 256.022ZM218.117 261.804C217.921 261.599 217.823 261.351 217.823 261.062C217.823 260.773 217.921 260.53 218.117 260.334C218.323 260.129 218.57 260.026 218.859 260.026C219.149 260.026 219.396 260.129 219.601 260.334C219.807 260.53 219.909 260.773 219.909 261.062C219.909 261.351 219.807 261.599 219.601 261.804C219.396 262.009 219.149 262.112 218.859 262.112C218.57 262.112 218.323 262.009 218.117 261.804ZM222.241 261.804C222.045 261.599 221.947 261.351 221.947 261.062C221.947 260.773 222.045 260.53 222.241 260.334C222.446 260.129 222.694 260.026 222.983 260.026C223.272 260.026 223.52 260.129 223.725 260.334C223.93 260.53 224.033 260.773 224.033 261.062C224.033 261.351 223.93 261.599 223.725 261.804C223.52 262.009 223.272 262.112 222.983 262.112C222.694 262.112 222.446 262.009 222.241 261.804ZM226.365 261.804C226.169 261.599 226.071 261.351 226.071 261.062C226.071 260.773 226.169 260.53 226.365 260.334C226.57 260.129 226.818 260.026 227.107 260.026C227.396 260.026 227.644 260.129 227.849 260.334C228.054 260.53 228.157 260.773 228.157 261.062C228.157 261.351 228.054 261.599 227.849 261.804C227.644 262.009 227.396 262.112 227.107 262.112C226.818 262.112 226.57 262.009 226.365 261.804Z" fill="#737373"/>
</g>
<defs>
<filter id="filter0_d_2636_2659" x="0" y="0" width="366" height="334" filterUnits="userSpaceOnUse" color-interpolation-filters="sRGB">
<feFlood flood-opacity="0" result="BackgroundImageFix"/>
<feColorMatrix in="SourceAlpha" type="matrix" values="0 0 0 0 0 0 0 0 0 0 0 0 0 0 0 0 0 0 127 0" result="hardAlpha"/>
<feOffset dy="13"/>
<feGaussianBlur stdDeviation="9.5"/>
<feColorMatrix type="matrix" values="0 0 0 0 0 0 0 0 0 0 0 0 0 0 0 0 0 0 0.07 0"/>
<feBlend mode="normal" in2="BackgroundImageFix" result="effect1_dropShadow_2636_2659"/>
<feBlend mode="normal" in="SourceGraphic" in2="effect1_dropShadow_2636_2659" result="shape"/>
</filter>
<clipPath id="clip0_2636_2659">
<rect width="72" height="72" fill="white" transform="translate(59 41)"/>
</clipPath>
<clipPath id="clip1_2636_2659">
<rect width="67.5" height="67.5" fill="white" transform="translate(61.25 43.25)"/>
</clipPath>
<clipPath id="clip2_2636_2659">
<rect width="63" height="40.5" fill="white" transform="translate(65.75 54.5)"/>
</clipPath>
<clipPath id="clip3_2636_2659">
<rect width="63" height="6.75" fill="white" transform="translate(65.75 95)"/>
</clipPath>
<clipPath id="clip4_2636_2659">
<rect width="58.5" height="40.5" fill="white" transform="translate(65.75 54.5)"/>
</clipPath>
<clipPath id="clip5_2636_2659">
<rect width="58.5" height="6.75" fill="white" transform="translate(65.75 95)"/>
</clipPath>
<clipPath id="clip6_2636_2659">
<rect width="49.5" height="31.5" fill="white" transform="translate(70.25 59)"/>
</clipPath>
<clipPath id="clip7_2636_2659">
<rect width="29.25" height="4.5" fill="white" transform="translate(74.75 63.5)"/>
</clipPath>
<clipPath id="clip8_2636_2659">
<rect width="29.25" height="4.5" fill="white" transform="translate(74.75 72.5)"/>
</clipPath>
<clipPath id="clip9_2636_2659">
<rect width="29.25" height="4.5" fill="white" transform="translate(74.75 81.5)"/>
</clipPath>
<clipPath id="clip10_2636_2659">
<rect width="4.5" height="4.5" fill="white" transform="translate(101.188 101.75)"/>
</clipPath>
<clipPath id="clip11_2636_2659">
<rect width="10.6875" height="4.5" fill="white" transform="translate(90.5 101.75)"/>
</clipPath>
<clipPath id="clip12_2636_2659">
<rect width="37.125" height="4.5" fill="white" transform="translate(77.5625 106.25)"/>
</clipPath>
<clipPath id="clip13_2636_2659">
<rect width="13.5" height="4.5" fill="white" transform="translate(101.188 106.25)"/>
</clipPath>
<clipPath id="clip14_2636_2659">
<rect width="30.375" height="27" fill="white" transform="translate(61.25 43.25)"/>
</clipPath>
<clipPath id="clip15_2636_2659">
<rect width="27" height="27" fill="white" transform="translate(61.25 43.25)"/>
</clipPath>
<clipPath id="clip16_2636_2659">
<rect width="22.5" height="22.5" fill="white" transform="translate(63.5 45.5)"/>
</clipPath>
<clipPath id="clip17_2636_2659">
<rect width="1.125" height="10.125" fill="white" transform="translate(74.1875 47.1875)"/>
</clipPath>
<clipPath id="clip18_2636_2659">
<rect width="5.89669" height="5.89754" fill="white" transform="translate(69.4141 56.1885)"/>
</clipPath>
<clipPath id="clip19_2636_2659">
<rect width="4.5" height="4.5" fill="white" transform="translate(72.5 54.5)"/>
</clipPath>
<clipPath id="clip20_2636_2659">
<rect width="2.25" height="2.25" fill="white" transform="translate(73.625 55.625)"/>
</clipPath>
<clipPath id="clip21_2636_2659">
<rect width="2.25" height="1.125" fill="white" transform="translate(65.1875 56.1875)"/>
</clipPath>
<clipPath id="clip22_2636_2659">
<rect width="1.125" height="2.25" fill="white" transform="translate(74.1875 64.0625)"/>
</clipPath>
<clipPath id="clip23_2636_2659">
<rect width="2.25" height="1.125" fill="white" transform="translate(82.0625 56.1875)"/>
</clipPath>
<clipPath id="clip24_2636_2659">
<rect width="4.5" height="4.5" fill="white" transform="translate(109.625 81.5)"/>
</clipPath>
<clipPath id="clip25_2636_2659">
<rect width="7.44863" height="5.76112" fill="white" transform="translate(108.994 62.3071)"/>
</clipPath>
<clipPath id="clip26_2636_2659">
<rect width="7.44863" height="5.76113" fill="white" transform="translate(108.994 71.3071)"/>
</clipPath>
</defs>
</svg>
