<svg width="68" height="72" viewBox="0 0 68 72" fill="none" xmlns="http://www.w3.org/2000/svg">
<g clip-path="url(#clip0_2645_704)">
<g clip-path="url(#clip1_2645_704)">
<path d="M38.5332 24.4541C41.0185 24.4541 43.0332 22.4394 43.0332 19.9541C43.0332 17.4688 41.0185 15.4541 38.5332 15.4541C36.0479 15.4541 34.0332 17.4688 34.0332 19.9541C34.0332 22.4394 36.0479 24.4541 38.5332 24.4541Z" fill="#F68820"/>
</g>
<path d="M62.8332 65.8541L43.0332 39.4537V20.5166C43.0332 19.2746 42.0252 18.2666 40.7832 18.2666C39.5412 18.2666 38.5332 19.2746 38.5332 20.5166V39.4537L18.7332 65.8541C17.9874 66.8486 18.1899 68.2594 19.1832 69.0041C19.5882 69.309 20.0619 69.4541 20.5321 69.4541C21.2161 69.4541 21.8911 69.1436 22.3344 68.5541L38.5344 46.9541V67.2041C38.5344 68.4461 39.5424 69.4541 40.7844 69.4541C42.0264 69.4541 43.0344 68.4461 43.0344 67.2041V46.9541L59.2344 68.5541C59.6765 69.1425 60.3526 69.4541 61.0366 69.4541C61.5057 69.4541 61.9805 69.3079 62.3855 69.0041C63.3766 68.2594 63.578 66.8486 62.8332 65.8541Z" fill="#55525B"/>
<g clip-path="url(#clip2_2645_704)">
<path d="M34.0301 53.7042C33.0907 53.7042 32.1435 53.4106 31.3335 52.8042C29.3445 51.3125 28.9428 48.4921 30.4335 46.5031L37.1835 37.5031C38.6763 35.5152 41.4956 35.1147 43.4835 36.6031C45.4725 38.0948 45.8741 40.9152 44.3835 42.9042L37.6335 51.9042C36.7492 53.0832 35.3981 53.7042 34.0301 53.7042Z" fill="#5C76B2"/>
</g>
<g clip-path="url(#clip3_2645_704)">
<path d="M47.5365 53.7043C46.1685 53.7043 44.8174 53.0833 43.9331 51.9044L37.1831 42.9044C35.6925 40.9154 36.0953 38.0961 38.0831 36.6032C40.0699 35.1137 42.8903 35.5131 44.3831 37.5032L51.1331 46.5032C52.6238 48.4922 52.221 51.3115 50.2331 52.8043C49.4231 53.4118 48.4759 53.7043 47.5365 53.7043Z" fill="#5C76B2"/>
</g>
<g clip-path="url(#clip4_2645_704)">
<g clip-path="url(#clip5_2645_704)">
<path d="M61.7962 13.4958L57.3648 12.7139C53.6939 12.067 50.1929 14.5184 49.5449 18.1893C48.8981 21.8601 51.3494 25.3611 55.0203 26.0091L59.4517 26.791C63.1226 27.4379 66.6236 24.9865 67.2716 21.3156C67.9185 17.6436 65.4671 14.1426 61.7962 13.4958Z" fill="#F68820"/>
</g>
<g clip-path="url(#clip6_2645_704)">
<path d="M56.1914 26.1113C59.9193 26.1113 62.9414 23.0892 62.9414 19.3613C62.9414 15.6334 59.9193 12.6113 56.1914 12.6113C52.4635 12.6113 49.4414 15.6334 49.4414 19.3613C49.4414 23.0892 52.4635 26.1113 56.1914 26.1113Z" fill="#FBBE18"/>
</g>
<g clip-path="url(#clip7_2645_704)">
<path d="M55.4108 23.7939L39.9004 21.059L41.463 12.1963L56.9734 14.9312C59.4214 15.3632 61.0549 17.6964 60.624 20.1444C60.192 22.5902 57.8588 24.2248 55.4108 23.7939Z" fill="#6FA4D8"/>
</g>
<g clip-path="url(#clip8_2645_704)">
<path d="M39.9004 21.0578L55.4108 23.7927C57.8588 24.2247 60.192 22.5901 60.624 20.1421L40.6823 16.6265L39.9004 21.0578Z" fill="#5C76B2"/>
</g>
<g clip-path="url(#clip9_2645_704)">
<path d="M35.0768 22.4925L19.5664 19.7577L21.9109 6.4624L37.4213 9.19728C41.0922 9.84415 43.5435 13.3452 42.8967 17.0172C42.2498 20.6892 38.7488 23.1405 35.0768 22.4925Z" fill="#6FA4D8"/>
</g>
<g clip-path="url(#clip10_2645_704)">
<path d="M19.5664 19.7575L35.0768 22.4924C38.7477 23.1392 42.2487 20.6879 42.8967 17.017L20.7387 13.1099L19.5664 19.7575Z" fill="#5C76B2"/>
</g>
<g clip-path="url(#clip11_2645_704)">
<path d="M18.2603 1.25006L13.8289 0.468182C7.71007 -0.610693 1.87582 3.47531 0.795819 9.59418C-0.283056 15.7131 3.80294 21.5473 9.92182 22.6273L14.3532 23.4092C20.4721 24.4881 26.3074 20.4021 27.3863 14.2832C28.4652 8.16318 24.3792 2.32893 18.2603 1.25006Z" fill="#F68820"/>
</g>
<g clip-path="url(#clip12_2645_704)">
<path d="M11.875 22.7974C18.0882 22.7974 23.125 17.7606 23.125 11.5474C23.125 5.33416 18.0882 0.297363 11.875 0.297363C5.6618 0.297363 0.625 5.33416 0.625 11.5474C0.625 17.7606 5.6618 22.7974 11.875 22.7974Z" fill="#FBBE18"/>
</g>
<g clip-path="url(#clip13_2645_704)">
<path d="M11.875 20.5474C16.8456 20.5474 20.875 16.5179 20.875 11.5474C20.875 6.5768 16.8456 2.54736 11.875 2.54736C6.90444 2.54736 2.875 6.5768 2.875 11.5474C2.875 16.5179 6.90444 20.5474 11.875 20.5474Z" fill="#55525B"/>
</g>
<g clip-path="url(#clip14_2645_704)">
<path d="M10.7474 2.61719C7.80889 2.98731 5.22139 4.79856 3.86914 7.43331C4.29102 9.09832 5.64327 10.4483 7.44439 10.7667C9.89239 11.1987 12.2256 9.56407 12.6576 7.11606C12.9738 5.31494 12.1683 3.58244 10.7474 2.61719Z" fill="#B3B4B6"/>
</g>
</g>
<g clip-path="url(#clip15_2645_704)">
<path d="M43.0332 24.4541C45.5185 24.4541 47.5332 22.4394 47.5332 19.9541C47.5332 17.4688 45.5185 15.4541 43.0332 15.4541C40.5479 15.4541 38.5332 17.4688 38.5332 19.9541C38.5332 22.4394 40.5479 24.4541 43.0332 24.4541Z" fill="#FBBE18"/>
</g>
<g clip-path="url(#clip16_2645_704)">
<path d="M43.0332 22.2041C44.2758 22.2041 45.2832 21.1967 45.2832 19.9541C45.2832 18.7115 44.2758 17.7041 43.0332 17.7041C41.7906 17.7041 40.7832 18.7115 40.7832 19.9541C40.7832 21.1967 41.7906 22.2041 43.0332 22.2041Z" fill="#55525B"/>
</g>
<g clip-path="url(#clip17_2645_704)">
<path d="M20.5332 71.7041C23.0185 71.7041 25.0332 69.6894 25.0332 67.2041C25.0332 64.7188 23.0185 62.7041 20.5332 62.7041C18.0479 62.7041 16.0332 64.7188 16.0332 67.2041C16.0332 69.6894 18.0479 71.7041 20.5332 71.7041Z" fill="#F68820"/>
</g>
<g clip-path="url(#clip18_2645_704)">
<path d="M61.0332 71.7041C63.5185 71.7041 65.5332 69.6894 65.5332 67.2041C65.5332 64.7188 63.5185 62.7041 61.0332 62.7041C58.5479 62.7041 56.5332 64.7188 56.5332 67.2041C56.5332 69.6894 58.5479 71.7041 61.0332 71.7041Z" fill="#F68820"/>
</g>
<g clip-path="url(#clip19_2645_704)">
<path d="M40.7832 71.7041C43.2685 71.7041 45.2832 69.6894 45.2832 67.2041C45.2832 64.7188 43.2685 62.7041 40.7832 62.7041C38.2979 62.7041 36.2832 64.7188 36.2832 67.2041C36.2832 69.6894 38.2979 71.7041 40.7832 71.7041Z" fill="#F68820"/>
</g>
<g clip-path="url(#clip20_2645_704)">
<path d="M40.7832 53.7041C38.2981 53.7041 36.2832 51.6892 36.2832 49.2041V40.2041C36.2832 37.719 38.2981 35.7041 40.7832 35.7041C43.2683 35.7041 45.2832 37.719 45.2832 40.2041V49.2041C45.2832 51.6892 43.2683 53.7041 40.7832 53.7041Z" fill="#F68820"/>
</g>
<g clip-path="url(#clip21_2645_704)">
<path d="M40.7832 53.7041C38.2981 53.7041 36.2832 51.6892 36.2832 49.2041V40.2041C36.2832 37.719 38.2981 35.7041 40.7832 35.7041C43.2683 35.7041 45.2832 37.719 45.2832 40.2041V49.2041C45.2832 51.6892 43.2683 53.7041 40.7832 53.7041Z" fill="#6FA4D8"/>
</g>
</g>
<defs>
<clipPath id="clip0_2645_704">
<rect width="66.7514" height="71.4089" fill="white" transform="translate(0.623047 0.29541)"/>
</clipPath>
<clipPath id="clip1_2645_704">
<rect width="9" height="8.99999" fill="white" transform="translate(34.0332 15.4541)"/>
</clipPath>
<clipPath id="clip2_2645_704">
<rect width="15.7505" height="18.0001" fill="white" transform="translate(29.5332 35.7041)"/>
</clipPath>
<clipPath id="clip3_2645_704">
<rect width="15.7499" height="18.0012" fill="white" transform="translate(36.2832 35.7031)"/>
</clipPath>
<clipPath id="clip4_2645_704">
<rect width="66.7514" height="26.5991" fill="white" transform="translate(0.623047 0.29541)"/>
</clipPath>
<clipPath id="clip5_2645_704">
<rect width="17.9337" height="14.2842" fill="white" transform="translate(49.4414 12.6104)"/>
</clipPath>
<clipPath id="clip6_2645_704">
<rect width="13.5" height="13.5" fill="white" transform="translate(49.4414 12.6113)"/>
</clipPath>
<clipPath id="clip7_2645_704">
<rect width="20.7926" height="11.6665" fill="white" transform="translate(39.9004 12.1963)"/>
</clipPath>
<clipPath id="clip8_2645_704">
<rect width="20.7236" height="7.23548" fill="white" transform="translate(39.9004 16.6265)"/>
</clipPath>
<clipPath id="clip9_2645_704">
<rect width="23.4338" height="16.134" fill="white" transform="translate(19.5664 6.4624)"/>
</clipPath>
<clipPath id="clip10_2645_704">
<rect width="23.3303" height="9.48603" fill="white" transform="translate(19.5664 13.1099)"/>
</clipPath>
<clipPath id="clip11_2645_704">
<rect width="26.936" height="23.2865" fill="white" transform="translate(0.623047 0.29541)"/>
</clipPath>
<clipPath id="clip12_2645_704">
<rect width="22.5" height="22.5" fill="white" transform="translate(0.625 0.297363)"/>
</clipPath>
<clipPath id="clip13_2645_704">
<rect width="18" height="18" fill="white" transform="translate(2.875 2.54736)"/>
</clipPath>
<clipPath id="clip14_2645_704">
<rect width="8.85681" height="8.21873" fill="white" transform="translate(3.86914 2.61719)"/>
</clipPath>
<clipPath id="clip15_2645_704">
<rect width="9" height="8.99999" fill="white" transform="translate(38.5332 15.4541)"/>
</clipPath>
<clipPath id="clip16_2645_704">
<rect width="4.5" height="4.49999" fill="white" transform="translate(40.7832 17.7041)"/>
</clipPath>
<clipPath id="clip17_2645_704">
<rect width="9" height="9" fill="white" transform="translate(16.0332 62.7041)"/>
</clipPath>
<clipPath id="clip18_2645_704">
<rect width="9" height="9" fill="white" transform="translate(56.5332 62.7041)"/>
</clipPath>
<clipPath id="clip19_2645_704">
<rect width="9" height="9" fill="white" transform="translate(36.2832 62.7041)"/>
</clipPath>
<clipPath id="clip20_2645_704">
<rect width="9" height="18" fill="white" transform="translate(36.2832 35.7041)"/>
</clipPath>
<clipPath id="clip21_2645_704">
<rect width="9" height="18" fill="white" transform="translate(36.2832 35.7041)"/>
</clipPath>
</defs>
</svg>
