<svg width="48" height="70" viewBox="0 0 48 70" fill="none" xmlns="http://www.w3.org/2000/svg">
<g clip-path="url(#clip0_2645_749)">
<g clip-path="url(#clip1_2645_749)">
<path d="M30.7501 42.875V31.625H17.2501V42.875L1.0501 64.475C-0.618271 66.7003 0.969104 69.875 3.7501 69.875H44.2501C47.0311 69.875 48.6185 66.7003 46.9501 64.475L30.7501 42.875Z" fill="#6FA4D8"/>
</g>
<g clip-path="url(#clip2_2645_749)">
<path d="M46.95 64.475L30.75 42.875V31.625H24H17.25V34.4375H22.3125C23.244 34.4375 24 35.1935 24 36.125V42.875L33 69.875H44.25C47.031 69.875 48.6184 66.7003 46.95 64.475Z" fill="#5C76B2"/>
</g>
<g clip-path="url(#clip3_2645_749)">
<path d="M30.75 31.625H17.25C16.0069 31.625 15 30.6181 15 29.375C15 28.1319 16.0069 27.125 17.25 27.125H30.75C31.9931 27.125 33 28.1319 33 29.375C33 30.6181 31.9931 31.625 30.75 31.625Z" fill="#6FA4D8"/>
</g>
<g clip-path="url(#clip4_2645_749)">
<path d="M30.75 27.125H24C25.2431 27.125 26.25 28.1319 26.25 29.375C26.25 30.6181 25.2431 31.625 24 31.625H30.75C31.9931 31.625 33 30.6181 33 29.375C33 28.1319 31.9931 27.125 30.75 27.125Z" fill="#5C76B2"/>
</g>
<g clip-path="url(#clip5_2645_749)">
<path d="M42 65.3749H6L14.4375 54.1249L14.4386 54.1238C16.8281 50.9356 21.6105 50.9345 24.0011 54.1216L24.0022 54.1227C26.3929 57.3087 31.1707 57.3098 33.5625 54.1249L42 65.3749Z" fill="#F68820"/>
</g>
<g clip-path="url(#clip6_2645_749)">
<path d="M33.5625 54.1249L33.5614 54.1238C31.1719 50.9356 26.3895 50.9345 23.9989 54.1216L23.9977 54.1227C21.6071 57.3087 16.8293 57.3098 14.4375 54.1249L6 65.3749H42L33.5625 54.1249Z" fill="#FBBE18"/>
</g>
<g clip-path="url(#clip7_2645_749)">
<path d="M33.5626 54.125L33.5615 54.1239C31.9753 52.0066 29.336 51.3035 27.041 51.9976L31.5005 65.375H42.0001L33.5626 54.125Z" fill="#F68820"/>
</g>
<g clip-path="url(#clip8_2645_749)">
<path d="M20.0625 61.4375C20.9945 61.4375 21.75 60.682 21.75 59.75C21.75 58.818 20.9945 58.0625 20.0625 58.0625C19.1305 58.0625 18.375 58.818 18.375 59.75C18.375 60.682 19.1305 61.4375 20.0625 61.4375Z" fill="#F68820"/>
</g>
<g clip-path="url(#clip9_2645_749)">
<path d="M16.125 63.6875C16.7463 63.6875 17.25 63.1838 17.25 62.5625C17.25 61.9412 16.7463 61.4375 16.125 61.4375C15.5037 61.4375 15 61.9412 15 62.5625C15 63.1838 15.5037 63.6875 16.125 63.6875Z" fill="#F68820"/>
</g>
<g clip-path="url(#clip10_2645_749)">
<path d="M18.375 20.375C21.4816 20.375 24 17.8566 24 14.75C24 11.6434 21.4816 9.125 18.375 9.125C15.2684 9.125 12.75 11.6434 12.75 14.75C12.75 17.8566 15.2684 20.375 18.375 20.375Z" fill="#F68820"/>
</g>
<g clip-path="url(#clip11_2645_749)">
<path d="M16.6875 14.75C17.6195 14.75 18.375 13.9945 18.375 13.0625C18.375 12.1305 17.6195 11.375 16.6875 11.375C15.7555 11.375 15 12.1305 15 13.0625C15 13.9945 15.7555 14.75 16.6875 14.75Z" fill="#FBBE18"/>
</g>
<g clip-path="url(#clip12_2645_749)">
<path d="M29.625 24.875C31.489 24.875 33 23.364 33 21.5C33 19.636 31.489 18.125 29.625 18.125C27.761 18.125 26.25 19.636 26.25 21.5C26.25 23.364 27.761 24.875 29.625 24.875Z" fill="#F68820"/>
</g>
<g clip-path="url(#clip13_2645_749)">
<path d="M28.5 21.5C29.1213 21.5 29.625 20.9963 29.625 20.375C29.625 19.7537 29.1213 19.25 28.5 19.25C27.8787 19.25 27.375 19.7537 27.375 20.375C27.375 20.9963 27.8787 21.5 28.5 21.5Z" fill="#FBBE18"/>
</g>
<g clip-path="url(#clip14_2645_749)">
<path d="M34.4062 1.53125C34.4062 2.3075 33 4.625 33 4.625C33 4.625 31.5938 2.3075 31.5938 1.53125C31.5938 0.755 32.2237 0.125 33 0.125C33.7762 0.125 34.4062 0.755 34.4062 1.53125Z" fill="#F68820"/>
</g>
<g clip-path="url(#clip15_2645_749)">
<path d="M29.0757 2.98483C29.7484 3.37408 31.0523 5.75008 31.0523 5.75008C31.0523 5.75008 28.3422 5.80971 27.6694 5.42158C26.9978 5.03233 26.7672 4.17283 27.1553 3.50008C27.5434 2.82733 28.404 2.59671 29.0757 2.98483Z" fill="#F68820"/>
</g>
<g clip-path="url(#clip16_2645_749)">
<path d="M27.6678 8.32838C28.3405 7.94025 31.0507 7.99988 31.0507 7.99988C31.0507 7.99988 29.7468 10.3759 29.074 10.7651C28.4013 11.1533 27.5418 10.9226 27.1525 10.2499C26.7655 9.57713 26.9962 8.71763 27.6678 8.32838Z" fill="#F68820"/>
</g>
<g clip-path="url(#clip17_2645_749)">
<path d="M31.5938 12.2188C31.5938 11.4425 33 9.125 33 9.125C33 9.125 34.4062 11.4425 34.4062 12.2188C34.4062 12.995 33.7762 13.625 33 13.625C32.2237 13.625 31.5938 12.995 31.5938 12.2188Z" fill="#F68820"/>
</g>
<g clip-path="url(#clip18_2645_749)">
<path d="M36.9258 10.7651C36.2531 10.3759 34.9492 7.99988 34.9492 7.99988C34.9492 7.99988 37.6593 7.94025 38.3321 8.32838C39.0049 8.7165 39.2355 9.57713 38.8474 10.2499C38.4581 10.9226 37.5975 11.1533 36.9258 10.7651Z" fill="#F68820"/>
</g>
<g clip-path="url(#clip19_2645_749)">
<path d="M38.3321 5.4216C37.6593 5.80972 34.9492 5.7501 34.9492 5.7501C34.9492 5.7501 36.2531 3.3741 36.9258 2.98485C37.5986 2.5956 38.4581 2.82735 38.8462 3.5001C39.2343 4.17285 39.0037 5.03235 38.3321 5.4216Z" fill="#F68820"/>
</g>
</g>
<defs>
<clipPath id="clip0_2645_749">
<rect width="47.2619" height="69.75" fill="white" transform="translate(0.369141 0.125)"/>
</clipPath>
<clipPath id="clip1_2645_749">
<rect width="47.2619" height="38.25" fill="white" transform="translate(0.369141 31.625)"/>
</clipPath>
<clipPath id="clip2_2645_749">
<rect width="30.381" height="38.25" fill="white" transform="translate(17.25 31.625)"/>
</clipPath>
<clipPath id="clip3_2645_749">
<rect width="18" height="4.5" fill="white" transform="translate(15 27.125)"/>
</clipPath>
<clipPath id="clip4_2645_749">
<rect width="9" height="4.5" fill="white" transform="translate(24 27.125)"/>
</clipPath>
<clipPath id="clip5_2645_749">
<rect width="36" height="13.643" fill="white" transform="translate(6 51.7319)"/>
</clipPath>
<clipPath id="clip6_2645_749">
<rect width="36" height="13.643" fill="white" transform="translate(6 51.7319)"/>
</clipPath>
<clipPath id="clip7_2645_749">
<rect width="14.9591" height="13.6357" fill="white" transform="translate(27.041 51.7393)"/>
</clipPath>
<clipPath id="clip8_2645_749">
<rect width="3.375" height="3.375" fill="white" transform="translate(18.375 58.0625)"/>
</clipPath>
<clipPath id="clip9_2645_749">
<rect width="2.25" height="2.25" fill="white" transform="translate(15 61.4375)"/>
</clipPath>
<clipPath id="clip10_2645_749">
<rect width="11.25" height="11.25" fill="white" transform="translate(12.75 9.125)"/>
</clipPath>
<clipPath id="clip11_2645_749">
<rect width="3.375" height="3.375" fill="white" transform="translate(15 11.375)"/>
</clipPath>
<clipPath id="clip12_2645_749">
<rect width="6.75" height="6.75" fill="white" transform="translate(26.25 18.125)"/>
</clipPath>
<clipPath id="clip13_2645_749">
<rect width="2.25" height="2.25" fill="white" transform="translate(27.375 19.25)"/>
</clipPath>
<clipPath id="clip14_2645_749">
<rect width="2.8125" height="4.5" fill="white" transform="translate(31.5938 0.125)"/>
</clipPath>
<clipPath id="clip15_2645_749">
<rect width="4.08548" height="2.95699" fill="white" transform="translate(26.9668 2.79639)"/>
</clipPath>
<clipPath id="clip16_2645_749">
<rect width="4.08582" height="2.95699" fill="white" transform="translate(26.9648 7.99658)"/>
</clipPath>
<clipPath id="clip17_2645_749">
<rect width="2.8125" height="4.5" fill="white" transform="translate(31.5938 9.125)"/>
</clipPath>
<clipPath id="clip18_2645_749">
<rect width="4.08658" height="2.95699" fill="white" transform="translate(34.9492 7.99658)"/>
</clipPath>
<clipPath id="clip19_2645_749">
<rect width="4.08548" height="2.95749" fill="white" transform="translate(34.9492 2.7959)"/>
</clipPath>
</defs>
</svg>
