<svg width="490" height="517" viewBox="0 0 490 517" fill="none" xmlns="http://www.w3.org/2000/svg">
<path d="M455.025 52.6836C406.533 4.06144 329.993 0.686009 261.209 0.396146C209.632 0.181086 156.799 0.153038 108.063 17.1147C59.3279 34.0763 14.5874 71.6089 3.59688 121.895C-8.59399 177.886 22.2208 233.324 51.9102 282.386L129.172 410.141C150.741 445.728 173.931 482.971 210.673 502.598C254.429 525.974 310.507 518.587 352.275 491.77C394.042 464.953 422.606 421.305 440.068 374.974C459.882 322.415 462.283 266.92 476.846 213.324C492.207 156.679 501.219 99.0243 455.025 52.6836Z" fill="#A5B4B4"/>
</svg>
